<svg width="166" height="128" viewBox="0 0 166 128" fill="none" xmlns="http://www.w3.org/2000/svg">
<path d="M15.3928 116.216C5.86525 106.096 0.75 94.7466 0.75 76.3484C0.75 43.9734 23.4772 14.9561 56.5275 0.609375L64.7878 13.3559C33.939 30.0429 27.908 51.6971 25.503 65.3501C30.4703 62.7786 36.973 61.8814 43.3462 62.4734C60.0332 64.0181 73.1868 77.7174 73.1868 94.7466C73.1868 103.333 69.7758 111.568 63.7043 117.639C57.6328 123.711 49.3981 127.122 40.8117 127.122C30.8865 127.122 21.396 122.589 15.3928 116.216ZM107.893 116.216C98.3652 106.096 93.25 94.7466 93.25 76.3484C93.25 43.9734 115.977 14.9561 149.028 0.609375L157.288 13.3559C126.439 30.0429 120.408 51.6971 118.003 65.3501C122.97 62.7786 129.473 61.8814 135.846 62.4734C152.533 64.0181 165.687 77.7174 165.687 94.7466C165.687 103.333 162.276 111.568 156.204 117.639C150.133 123.711 141.898 127.122 133.312 127.122C123.386 127.122 113.896 122.589 107.893 116.216Z" fill="black" fill-opacity="0.07"/>
</svg>
