<svg width="680" height="603" viewBox="0 0 680 603" fill="none" xmlns="http://www.w3.org/2000/svg">
<mask id="mask0_808_1264" style="mask-type:alpha" maskUnits="userSpaceOnUse" x="0" y="0" width="680" height="603">
<rect width="680" height="603" fill="#243317"/>
</mask>
<g mask="url(#mask0_808_1264)">
<g opacity="0.3">
<g opacity="0.21">
<path d="M76.5211 -9.80422C114.718 5.97899 122.423 35.9424 113.982 76.6323C81.3878 233.613 176.585 300.832 244.081 348.496C276.722 371.548 302.884 390.022 304.931 411.846C314.446 513.444 357.988 536.211 422.255 525.354C462.714 518.521 511.33 498.336 564.832 476.126C599.759 461.621 636.793 446.244 674.957 433.183C795.355 391.969 927.203 373.758 1041.22 478.17L1041.76 477.701C927.523 373.257 795.363 391.531 674.648 432.847C636.447 445.922 599.395 461.307 564.427 475.816C511.035 497.982 462.492 518.138 422.209 524.938C358.451 535.701 315.236 512.973 305.751 411.689C303.707 389.756 277.493 371.253 244.792 348.153C177.352 300.527 82.2361 233.361 114.799 76.525C123.285 35.6721 115.495 5.5859 77.0068 -10.2509L76.5134 -9.82535L76.5211 -9.80422Z" fill="#2A699C" fill-opacity="0.3"/>
<path d="M76.3315 -9.64234C117.96 4.71718 127.16 34.7749 116.203 78.7836C80.8606 237.98 180.21 307.269 249.704 355.722C280.757 377.387 305.856 394.884 310.23 414.369C324.166 511.215 369.461 531.498 433.802 519.863C472.939 512.781 519.073 493.873 569.442 473.221C603.23 459.375 638.923 444.735 675.691 432.374C793.489 392.749 922.379 376.402 1034.69 483.785L1035.25 483.309C922.735 375.886 793.534 392.296 675.399 432.031C638.595 444.406 602.884 459.053 569.078 472.907C518.778 493.519 472.721 512.409 433.76 519.457C369.928 530.998 324.938 510.751 311.069 414.205C306.682 394.628 281.554 377.107 250.444 355.404C181.007 306.989 81.7386 237.752 117.05 78.7008C128.049 34.5185 118.763 4.33796 76.8432 -10.0751L76.368 -9.65686L76.3315 -9.64234Z" fill="#2A699C" fill-opacity="0.3"/>
<path d="M75.9987 -9.35399C121.168 3.47827 131.994 33.53 118.459 80.9184C80.1569 242.728 184.521 314.277 256.157 363.4C285.389 383.434 309.156 399.732 315.55 416.893C333.974 509.117 381.171 526.808 445.731 514.277C483.403 506.956 526.938 489.346 574.116 470.264C606.701 457.077 641.039 443.193 676.362 431.515C791.623 393.417 917.542 378.903 1028.16 489.409L1028.71 488.94C917.858 378.391 791.631 392.979 676.071 431.171C640.693 442.872 606.337 456.763 573.734 469.957C526.61 489.017 483.149 506.598 445.649 513.875C381.557 526.317 334.72 508.639 316.363 416.715L316.359 416.704C309.96 399.473 286.141 383.147 256.876 363.079C185.295 313.993 81.0167 242.507 119.27 80.85C132.846 33.288 121.934 3.11354 76.4555 -9.76501L75.9766 -9.35731L75.9987 -9.35399Z" fill="#2A699C" fill-opacity="0.3"/>
<path d="M75.4818 -8.92047C124.263 2.29542 136.851 32.2514 120.691 83.0623C79.1716 247.986 189.632 322.017 263.602 371.59C290.667 389.731 312.828 404.589 320.856 419.397C343.906 507.15 393.125 522.118 458.144 508.547C494.157 501.027 534.939 484.753 578.801 467.242C610.202 454.706 643.155 441.554 677.016 430.565C789.763 393.949 912.675 381.221 1021.67 495.009L1022.22 494.533C913.013 380.713 789.79 393.503 676.747 430.225C642.835 441.246 609.842 454.402 578.423 466.945C534.629 484.417 493.907 500.68 458.047 508.163C393.533 521.63 344.638 506.691 321.691 419.223L321.683 419.202C313.628 404.319 291.437 389.436 264.325 371.279C190.41 321.744 80.0351 247.775 121.523 82.9973C137.739 31.995 125.069 1.92677 75.979 -9.33545L75.5001 -8.92775L75.4818 -8.92047Z" fill="#2A699C" fill-opacity="0.3"/>
<path d="M74.82 -8.3415C127.322 1.15448 141.78 30.9112 122.933 85.2053C77.8646 253.882 195.894 330.656 272.297 380.374C296.782 396.29 316.988 409.437 326.159 421.919C354.002 505.376 405.505 517.419 471.175 502.647C505.255 494.978 543.111 480.083 583.453 464.212C613.648 452.325 645.216 439.904 677.621 429.566C787.862 394.392 907.722 383.445 1015.11 500.648L1015.68 500.155C908.089 382.901 787.926 393.932 677.348 429.215C644.906 439.568 613.302 452.003 583.089 463.898C542.823 479.75 505.022 494.623 471.056 502.259C405.887 516.917 354.704 504.892 326.982 421.713L326.97 421.681C317.763 409.153 297.531 395.992 273.012 380.041C196.65 330.379 78.7426 253.654 123.744 85.137C142.664 30.6442 128.103 0.771966 75.2913 -8.77034L74.8124 -8.36263L74.82 -8.3415Z" fill="#2A699C" fill-opacity="0.3"/>
<path d="M74.0109 -7.64415C130.306 0.0428311 146.764 29.5 125.173 87.3485C76.1564 260.638 203.727 340.47 282.633 389.834C303.958 403.188 321.742 414.314 331.477 424.434C364.368 503.832 418.469 512.669 485.126 496.466C516.928 488.735 551.573 475.297 588.102 461.122C617.105 449.865 647.321 438.151 678.229 428.468C786.009 394.683 902.746 385.496 1008.53 506.295L1009.1 505.801C903.117 384.962 786.076 394.234 677.975 428.11C646.993 437.822 616.763 449.554 587.738 460.808C551.245 474.968 516.655 488.385 484.966 496.082C418.789 512.167 365.04 503.324 332.271 424.203L332.256 424.161C322.482 413.996 304.677 402.867 283.304 389.495C204.472 340.162 76.9902 260.403 125.962 87.2769C147.627 29.2297 131.065 -0.342982 74.4602 -8.07628L73.9811 -7.66855L74.0109 -7.64415Z" fill="#2A699C" fill-opacity="0.3"/>
<path d="M73.0496 -6.81709C133.214 -1.01765 151.826 28.043 127.407 89.5034C73.8559 268.617 213.94 351.872 295.136 400.12C312.582 410.486 327.296 419.244 336.793 426.971C375.175 502.617 432.302 507.811 500.385 489.894C529.402 482.255 560.401 470.399 592.759 458.026C620.588 447.393 649.444 436.363 678.922 427.285C784.249 394.861 897.758 387.427 1001.96 511.985L1002.53 511.491C898.154 386.907 784.316 394.412 678.652 426.945C649.134 436.027 620.261 447.064 592.399 457.723C560.059 470.088 529.111 481.912 500.174 489.543C432.553 507.349 375.792 502.13 337.572 426.758L337.553 426.705C328.026 418.954 313.272 410.2 295.818 399.813C214.678 351.603 74.7051 268.424 128.21 89.474C152.704 27.8149 133.988 -1.36122 73.5324 -7.21426L73.0534 -6.80652L73.0496 -6.81709Z" fill="#2A699C" fill-opacity="0.3"/>
<path d="M71.9353 -5.85805C136.06 -2.04244 156.9 26.5431 129.643 91.6438C70.7107 278.451 228.036 365.559 310.747 411.357C323.251 418.276 334.034 424.247 342.107 429.482C386.627 501.833 447.449 502.696 517.646 482.599C543.132 475.3 569.816 465.254 597.417 454.856C624.117 444.792 651.645 434.423 679.71 425.942C782.61 394.833 892.788 389.157 995.397 517.632L995.989 517.131C893.221 388.623 782.718 394.379 679.477 425.588C651.357 434.09 623.793 444.474 597.09 454.527C569.525 464.911 542.862 474.96 517.45 482.23C447.706 502.196 387.247 501.297 342.912 429.223L342.856 429.185C334.756 423.936 323.947 417.951 311.44 411.022C228.807 365.265 71.5925 278.234 130.465 91.6071C157.815 26.3006 136.848 -2.40384 72.4325 -6.27303L71.9574 -5.85475L71.9353 -5.85805Z" fill="#2A699C" fill-opacity="0.3"/>
<path d="M70.6789 -4.77409C138.821 -3.01357 162.058 24.9822 131.882 93.791L131.864 93.7983C66.1177 291.672 249.495 383.093 331.155 423.789C337.167 426.788 342.639 429.506 347.421 431.99C413.847 521.499 503.021 488.402 602.045 451.657C627.651 442.149 653.921 432.4 680.602 424.481C781.105 394.651 887.804 390.731 988.785 523.307L989.373 522.796C888.219 390.204 781.205 394.176 680.366 424.116C653.63 432.057 627.341 441.813 601.714 451.318C503.117 487.917 414.327 520.861 348.196 431.707L348.136 431.658C343.361 429.194 337.878 426.445 331.822 423.439C250.236 382.774 66.992 291.433 132.7 93.7438C162.965 24.7185 139.605 -3.38554 71.1867 -5.21743L70.6934 -4.79192L70.6789 -4.77409Z" fill="#2A699C" fill-opacity="0.3"/>
<path d="M69.2737 -3.56839C141.505 -3.95204 167.252 23.3609 134.1 95.9491C97.3845 200.948 132.714 277.565 186.899 331.955C241.058 386.331 314.032 418.484 352.721 434.531C424.627 515.001 512.094 483.017 606.64 448.438C631.203 439.452 656.266 430.292 681.633 422.896C779.744 394.305 882.801 392.207 982.123 529.03L982.711 528.518C883.216 391.68 779.829 393.848 681.378 422.538C655.953 429.945 630.875 439.124 606.272 448.113C512.131 482.543 425.015 514.4 353.429 434.237L353.348 434.185C314.706 418.155 241.74 386.024 187.615 331.683C133.49 277.342 98.1865 200.798 134.859 95.9131C168.104 23.119 142.245 -4.33063 69.7192 -4.01112L69.2075 -3.57833L69.2737 -3.56839Z" fill="#2A699C" fill-opacity="0.3"/>
<path d="M67.7305 -2.24096C69.2352 -2.29518 70.7254 -2.33158 72.1935 -2.37132C145.222 -3.78428 171.79 23.2022 136.357 98.0858L136.342 98.1036C125.675 127.152 120.674 154.143 120.184 179.172C119.698 204.212 123.74 227.284 131.157 248.483C169.271 357.454 296.668 416.711 358.079 437.042C435.184 508.622 521.061 477.668 611.26 445.155C634.885 436.638 658.825 428.009 682.95 421.105C778.717 393.712 877.916 393.473 975.56 534.719L976.147 534.208C878.353 392.949 778.825 393.258 682.718 420.751C658.538 427.676 634.576 436.302 610.932 444.826C521.102 477.205 435.58 508.042 358.783 436.738L358.702 436.686C297.368 416.397 170.057 357.202 131.969 248.305C124.564 227.137 120.529 204.087 121.02 179.058C121.496 154.046 126.504 127.077 137.146 98.0743C172.733 22.864 145.939 -4.22625 72.3931 -2.80093C71.0239 -2.77635 69.6586 -2.74121 68.2567 -2.69156L67.7488 -2.24822L67.7305 -2.24096Z" fill="#2A699C" fill-opacity="0.3"/>
<path d="M66.0569 -0.799736C70.9215 -1.08967 75.593 -1.27868 80.1009 -1.34234C150.149 -2.39276 175.425 24.8296 138.578 100.251L138.549 100.286C127.499 128.967 122.106 155.8 121.285 180.779C120.467 205.77 124.206 228.926 131.404 250.272C168.326 360.043 296.257 422.048 363.36 439.585C445.392 502.444 529.777 472.445 615.773 441.879C638.549 433.785 661.434 425.647 684.41 419.2C777.861 392.968 872.978 394.665 968.868 540.473L969.474 539.954C873.433 394.134 778.005 392.5 684.195 418.838C661.165 425.307 638.239 433.448 615.445 441.55C529.785 472.007 445.733 501.885 364.035 439.257L363.935 439.212C296.935 421.73 169.112 359.791 132.199 250.102C125.027 228.769 121.277 205.641 122.102 180.672C122.928 155.703 128.291 128.906 139.335 100.264L139.327 100.243C176.335 24.5164 150.834 -2.80961 80.2822 -1.76465C75.8808 -1.69501 71.2901 -1.5139 66.5465 -1.23582L66.0204 -0.785223L66.0569 -0.799736Z" fill="#2A699C" fill-opacity="0.3"/>
<path d="M64.2477 0.759145C72.4697 0.0533574 80.1966 -0.34702 87.4362 -0.420883C154.992 -1.14552 179.038 26.372 140.819 102.386L140.784 102.461C129.35 130.775 123.599 157.424 122.45 182.364C121.301 207.305 124.755 230.538 131.72 252.05C167.485 362.606 295.946 427.347 368.72 442.089C455.351 496.416 538.36 467.29 620.313 438.536C642.36 430.792 664.319 423.094 686.249 417.051C777.411 391.933 868.191 395.668 962.27 546.169L962.876 545.65C868.664 395.129 777.573 391.458 686.053 416.681C664.064 422.736 642.072 430.459 620.004 438.2C538.332 466.867 455.637 495.88 369.369 441.746L369.251 441.709C296.599 427.016 168.249 362.351 132.533 251.872C125.579 230.392 122.133 207.18 123.286 182.25C124.424 157.338 130.164 130.718 141.606 102.424L141.645 102.36C180.043 26.0332 155.746 -1.60199 87.6761 -0.85445C80.5211 -0.777905 72.8968 -0.382084 64.8102 0.294054L64.2697 0.762461L64.2477 0.759145Z" fill="#2A699C" fill-opacity="0.3"/>
<path d="M62.3035 2.43844C73.8592 1.19334 84.5489 0.497685 94.2924 0.419485C159.73 -0.0432727 182.65 27.825 143.053 104.532L142.935 104.784C131.137 132.724 125.03 159.199 123.569 184.083C122.111 208.978 125.279 232.288 132.023 253.936C166.652 365.221 295.588 432.661 374.028 444.595C464.901 490.618 546.628 462.279 624.768 435.16C646.216 427.726 667.365 420.387 688.361 414.703C777.283 390.668 863.434 396.556 955.588 551.893L956.208 551.357C863.926 396.01 777.464 390.186 688.161 414.323C667.107 420.018 645.918 427.362 624.454 434.814C546.604 461.806 465.143 490.075 374.64 444.207L374.522 444.169C296.221 432.276 167.441 364.919 132.828 253.737C126.092 232.11 122.931 208.821 124.401 183.958C125.87 159.095 131.951 132.666 143.735 104.744L143.831 104.489C183.589 27.4762 160.421 -0.499081 94.4805 -0.0418086C84.8176 0.0285348 74.249 0.712339 62.8287 1.92779L62.2882 2.3962L62.3035 2.43844Z" fill="#2A699C" fill-opacity="0.3"/>
<path d="M60.2179 4.23461C75.1163 2.30169 88.6792 1.23752 100.733 1.19582C164.36 0.981227 186.246 29.224 145.294 106.687L145.269 106.733C133.036 134.338 126.553 160.637 124.723 185.486C122.898 210.345 125.763 233.74 132.255 255.56C165.641 367.738 295.197 437.987 379.37 447.125C474.109 485.076 554.675 457.392 629.171 431.806C650.157 424.592 670.678 417.538 690.878 412.194C777.608 389.2 858.809 397.392 948.928 557.669L949.548 557.132C859.308 396.868 777.811 388.721 690.701 411.818C670.449 417.194 649.906 424.244 628.902 431.466C554.629 456.976 474.323 484.569 379.959 446.733L379.845 446.706C295.834 437.613 166.46 367.461 133.086 255.375C126.605 233.586 123.744 210.202 125.559 185.371C127.378 160.551 133.868 134.273 146.072 106.704L146.097 106.657C187.211 28.889 165.096 0.532009 100.965 0.741137C88.996 0.785521 75.5502 1.82733 60.8056 3.72332L60.2506 4.20954L60.2179 4.23461Z" fill="#2A699C" fill-opacity="0.3"/>
<path d="M58.0187 6.12393C76.258 3.38308 92.6275 1.88037 106.826 1.88036C168.921 1.87576 189.811 30.5386 147.526 108.821L147.516 108.849C134.903 136.098 128.021 162.217 125.864 187.027C123.708 211.836 126.273 235.326 132.529 257.3C164.729 370.299 294.837 443.289 384.721 449.626C482.883 479.779 562.422 452.661 633.518 428.413C654.245 421.35 674.245 414.527 693.77 409.452C778.355 387.455 854.27 398.182 942.237 563.42L942.858 562.884C854.784 397.64 778.575 386.969 693.592 409.076C674.008 414.162 653.972 420.999 633.231 428.08C562.335 452.248 483.06 479.287 385.244 449.225L385.133 449.208C295.449 442.901 165.54 370.001 133.382 257.119C127.133 235.165 124.558 211.704 126.726 186.926C128.872 162.145 135.739 136.043 148.363 108.826L148.356 108.805C190.82 30.2103 169.683 1.44045 107.106 1.4429C92.9701 1.44226 76.7362 2.9153 58.6467 5.60869L58.0736 6.10214L58.0187 6.12393Z" fill="#2A699C" fill-opacity="0.3"/>
<path d="M55.6825 8.13531C77.287 4.48027 96.4178 2.47235 112.622 2.53317C173.409 2.7221 193.368 31.8149 149.756 110.987C136.746 137.886 129.509 163.832 126.999 188.589C124.511 213.349 126.773 236.923 132.792 259.052C163.803 372.862 294.467 448.602 390.021 452.143C491.192 474.795 569.8 448.107 637.756 425.046C658.418 418.033 678.074 411.359 697.077 406.515C779.546 385.48 849.816 398.957 935.486 569.215L936.12 568.661C850.367 398.4 779.785 384.986 696.914 406.121C677.838 410.994 658.141 417.672 637.461 424.692C569.696 447.701 491.311 474.314 390.474 451.721L390.368 451.715C295.013 448.204 164.592 372.56 133.605 258.874C127.575 236.773 125.321 213.221 127.816 188.482C130.312 163.743 137.56 137.828 150.545 110.975C194.319 31.4978 174.13 2.29072 112.84 2.09633C96.7018 2.04545 77.6844 4.02039 56.2481 7.62068L55.6605 8.13197L55.6825 8.13531Z" fill="#2A699C" fill-opacity="0.3"/>
<path d="M53.229 10.2612C78.1863 5.60019 100.052 3.01318 118.177 3.13213C177.817 3.49883 196.92 33.0527 152.006 113.128L152.01 113.139C138.616 139.671 130.984 165.448 128.147 190.166C125.31 214.884 127.286 238.535 133.091 260.821C162.913 375.441 294.133 453.932 395.398 454.673C499.112 470.155 576.873 443.779 641.949 421.705C662.76 414.645 682.271 408.029 700.902 403.369C781.305 383.262 845.581 399.737 928.788 575.02L929.423 574.466C846.136 399.191 781.548 382.779 700.724 402.992C682.034 407.664 662.487 414.294 641.658 421.362C576.75 443.381 499.153 469.691 395.785 454.241L395.696 454.228C294.671 453.513 163.698 375.13 133.922 260.636C128.124 238.371 126.16 214.751 128.986 190.062C131.813 165.373 139.435 139.624 152.817 113.12C197.925 32.7138 178.575 3.05292 118.453 2.68406C100.391 2.56447 78.6385 5.11857 53.8676 9.71755L53.2617 10.2361L53.229 10.2612Z" fill="#2A699C" fill-opacity="0.3"/>
<path d="M50.6361 12.4897C78.9666 6.706 103.57 3.49036 123.513 3.67201C182.168 4.20073 200.477 34.2149 154.248 115.272C152.448 118.669 150.77 122.053 149.187 125.412C106.355 215.979 132.06 299.065 186.655 359.44C241.258 419.837 324.788 457.507 397.535 457.22C398.6 457.22 399.661 457.209 400.718 457.188C506.485 465.875 583.528 439.651 646.034 418.381C667.229 411.169 686.768 404.517 705.144 400.019C783.512 380.806 841.434 400.554 922.041 580.832L922.694 580.27C842.028 400.004 783.813 380.312 705.003 399.628C686.55 404.145 666.992 410.804 645.743 418.038C583.386 439.261 506.508 465.419 401.038 456.746L400.976 456.747C399.9 456.776 398.836 456.776 397.775 456.787C325.259 457.078 241.94 419.469 187.437 359.178C132.905 298.862 107.212 215.868 149.998 125.404C151.6 122.038 153.278 118.653 155.063 115.275C201.472 33.9045 182.952 3.76872 123.793 3.23455C103.912 3.05223 79.4265 6.24548 51.2968 11.9494L50.6764 12.4858L50.6361 12.4897Z" fill="#2A699C" fill-opacity="0.3"/>
<path d="M47.9061 14.827C79.609 7.86053 106.978 3.92056 128.655 4.16227C186.482 4.82663 204.013 35.3435 156.461 117.421C151.062 127.261 146.495 137.035 142.739 146.741C110.05 230.886 136.821 309.068 190.039 366.27C243.261 423.483 322.967 459.701 396.054 459.895C399.396 459.896 402.718 459.844 406.046 459.694C513.383 461.984 589.824 435.77 650.026 415.113C671.888 407.611 691.617 400.848 709.87 396.471C786.234 378.127 837.468 401.438 915.27 586.659L915.923 586.098C838.048 400.905 786.557 377.636 709.714 396.098C691.384 400.493 671.623 407.282 649.72 414.788C589.628 435.401 513.355 461.56 406.293 459.281L406.257 459.296C402.961 459.421 399.625 459.491 396.302 459.482C323.423 459.289 243.928 423.133 190.803 366.015C137.648 308.872 110.908 230.775 143.547 146.722C147.31 137.037 151.859 127.27 157.261 117.441C204.996 35.0614 187.237 4.43025 128.906 3.7604C107.269 3.51476 80.0689 7.40002 48.5485 14.294L47.9138 14.8482L47.9061 14.827Z" fill="#2A699C" fill-opacity="0.3"/>
<path d="M45.0754 17.2703C80.1749 9.01475 110.29 4.29762 133.65 4.63171C190.756 5.4377 207.566 36.446 158.718 119.558C149.776 135.19 143.018 150.739 138.24 166.106C113.834 244.75 141.377 318.542 193.251 372.835C245.155 427.153 321.43 461.968 394.443 462.651C400.12 462.702 405.765 462.549 411.378 462.192C519.81 458.502 595.698 432.145 653.941 411.905C676.738 403.983 696.827 397.004 715.071 392.716C789.46 375.204 833.644 402.403 908.502 592.478L909.155 591.917C834.242 401.863 789.805 374.717 714.915 392.343C696.576 396.657 676.469 403.643 653.636 411.579C595.52 431.769 519.746 458.093 411.559 461.769C405.95 462.137 400.328 462.294 394.691 462.238C321.905 461.55 245.836 426.786 194.015 372.58C142.182 318.343 114.669 244.635 139.058 166.059C143.822 150.71 150.566 135.178 159.497 119.575C208.543 36.1428 191.5 5.00964 133.912 4.20147C110.596 3.87402 80.6454 8.52586 45.7429 16.6911L45.0716 17.2597L45.0754 17.2703Z" fill="#2A699C" fill-opacity="0.3"/>
<path d="M41.3395 20.5016C80.1269 10.7809 113.189 5.14681 138.206 5.55937C194.124 6.48704 209.999 37.8547 160.038 121.699C147.59 142.589 139.169 163.473 134.284 184.028C116.704 257.991 144.813 327.863 195.468 379.536C246.19 431.279 319.579 464.813 392.42 465.999C400.507 466.132 408.573 465.862 416.616 465.179C525.939 455.93 601.492 429.223 658.141 409.193C682.098 400.726 702.668 393.459 720.857 389.253C792.631 372.708 829.219 404.133 900.939 598.982L903.166 597.058C831.33 402.291 794.035 370.99 720.409 387.957C701.905 392.216 681.211 399.544 657.086 408.066C600.715 427.998 525.553 454.573 416.956 463.752C409.097 464.422 401.191 464.676 393.273 464.548C321.185 463.365 248.43 430.027 198.01 378.598C147.523 327.1 119.502 257.472 137.012 183.778C141.884 163.301 150.258 142.52 162.652 121.711C213.22 36.8289 196.593 5.05902 139.056 4.09841C114.185 3.68789 81.6491 9.10108 43.5881 18.5211L41.328 20.4699L41.3395 20.5016Z" fill="#2A699C" fill-opacity="0.3"/>
</g>
<path d="M485.779 607.62C474.06 597.213 461.255 587.093 448.661 577.154C401.955 540.267 358.375 505.847 385.961 468.965C443.582 391.922 449.86 352.876 430.769 333.343C411.675 313.8 367.262 313.797 323.469 314.817C219.961 317.226 150.984 300.916 108.583 272.586C80.8301 254.042 64.4675 230.333 57.2604 203.361C50.0533 176.389 52.0307 146.118 60.9429 114.47C66.4031 95.0996 74.4557 75.2191 84.5997 55.2324L83.9144 55.5892C73.8532 75.4584 65.8651 95.2288 60.4435 114.475C51.5101 146.18 49.5442 176.483 56.7704 203.508C63.9783 230.54 80.3783 254.294 108.209 272.879C150.688 301.251 219.761 317.596 323.394 315.185C367.084 314.17 411.368 314.164 430.358 333.591C449.352 353.03 443.05 391.952 385.555 468.824C357.789 505.959 401.458 540.453 448.28 577.427C460.847 587.351 473.649 597.461 485.338 607.843L485.812 607.595L485.779 607.62Z" fill="#2A699C" fill-opacity="0.3"/>
<path d="M481.609 609.774C471.621 601.325 460.934 593.021 450.347 584.822C403.791 548.696 359.343 514.186 385.709 475.663C461.049 368.461 449.191 335.557 400.973 324.166C380.815 319.407 354.313 318.413 325.189 317.325L321.335 317.177C238.506 316.951 178.6 305.976 136.943 287.267C95.929 268.834 72.6358 242.878 62.6131 212.277C52.5866 181.666 55.8633 146.386 67.971 109.312C74.2383 90.1529 82.8742 70.4997 93.2606 50.7791L92.5571 51.1432C82.2535 70.7463 73.6966 90.2716 67.4679 109.307C55.3207 146.444 52.0631 181.777 62.1087 212.441C72.1399 243.123 95.5108 269.121 136.606 287.606C178.318 306.353 238.31 317.331 321.205 317.567L325.059 317.715C354.161 318.799 380.64 319.791 400.751 324.532C448.696 335.863 460.431 368.658 385.293 475.55C358.764 514.319 403.306 548.913 449.973 585.115C460.537 593.311 471.199 601.602 481.175 610.019L481.649 609.77L481.609 609.774Z" fill="#2A699C" fill-opacity="0.3"/>
<path d="M477.316 611.993C469.183 605.44 460.655 598.947 452.16 592.49C405.769 557.169 360.362 522.604 385.47 482.334C460.051 368.935 450.757 339.483 394.977 327.967C377.401 324.344 355.228 322.5 329.596 320.387C326.191 320.097 322.707 319.814 319.196 319.518C66.3903 312.5 33.7984 216.145 75.1585 104.36C82.2129 85.2991 91.4093 65.8097 102.029 46.214L101.307 46.5853C90.7809 66.0352 81.6491 85.4144 74.6516 104.344C33.2209 216.338 65.8519 312.859 319.04 319.894C322.573 320.193 326.035 320.473 329.435 320.752C355.049 322.873 377.201 324.714 394.732 328.33C450.196 339.778 459.393 369.136 385.013 482.226C359.739 522.731 405.239 557.379 451.741 592.777C460.211 599.22 468.713 605.699 476.82 612.238L477.294 611.989L477.316 611.993Z" fill="#2A699C" fill-opacity="0.3"/>
<path d="M472.848 614.304C466.716 609.589 460.401 604.887 454.082 600.174C407.84 565.724 361.375 531.121 385.235 489.016C460.092 366.797 453.463 343.039 383.571 330.667C368.76 328.048 351.102 325.931 330.768 323.513C326.513 323.006 322.125 322.478 317.06 321.869C57.4043 308.381 36.6071 211.325 82.5142 99.6427C90.3328 80.6162 100.07 61.1779 110.917 41.6363L110.196 42.0077C99.4633 61.4067 89.7834 80.7137 82.0217 99.6089C36.0441 211.501 56.8621 308.729 316.886 322.252C321.211 322.78 325.967 323.343 330.593 323.897C350.91 326.322 368.563 328.428 383.356 331.054C452.891 343.362 459.435 367.059 384.771 488.946C360.767 531.289 407.34 565.959 453.672 600.482C459.965 605.181 466.268 609.852 472.378 614.563L472.87 614.307L472.848 614.304Z" fill="#2A699C" fill-opacity="0.3"/>
<path d="M468.241 616.688C464.257 613.753 460.206 610.809 456.155 607.864C410.051 574.374 362.436 539.768 385.002 495.701C469.169 347.318 456.806 345.465 329.167 326.358C324.752 325.696 320.204 325.015 314.928 324.224L314.924 324.213C48.4382 304.138 39.8424 206.584 89.9891 95.0768C98.5673 76.0143 108.84 56.5563 119.849 36.999L119.127 37.3703C108.211 56.7818 97.9996 76.119 89.4966 95.043C39.2573 206.756 47.8519 304.479 314.709 324.601C319.217 325.286 324.162 326.027 328.949 326.735C456.145 345.776 468.482 347.615 384.517 495.629C361.826 539.927 409.547 574.598 455.737 608.151C459.762 611.082 463.783 614.002 467.742 616.923L468.234 616.667L468.241 616.688Z" fill="#2A699C" fill-opacity="0.3"/>
<path d="M463.458 619.161C461.77 617.959 460.065 616.765 458.359 615.57C412.42 583.113 363.51 548.563 384.75 502.39C386.287 499.424 388.662 494.905 390.954 490.503C426.906 421.731 444.893 387.346 436.605 367.085C428.317 346.823 393.806 340.773 324.793 328.693C320.582 327.962 316.32 327.203 312.776 326.582C39.4034 299.821 43.4407 201.922 97.6041 90.6673C106.926 71.5265 117.716 51.9962 128.845 32.367L128.105 32.7456C117.069 52.229 106.359 71.6313 97.1078 90.623C42.8518 202.083 38.7988 300.169 312.564 326.98C317.246 327.801 320.971 328.46 324.56 329.087C393.423 341.155 427.863 347.185 436.098 367.299C444.34 387.433 426.382 421.782 390.48 490.462C388.753 493.769 386.961 497.187 384.261 502.366C362.914 548.764 411.913 583.387 457.956 615.899C459.636 617.08 461.297 618.268 462.955 619.445L463.447 619.19L463.458 619.161Z" fill="#2A699C" fill-opacity="0.3"/>
<path d="M458.531 621.706C413.367 590.814 364.955 556.718 384.515 509.074C392.83 491.65 400.446 476.28 407.199 462.677C431.067 414.59 443.958 388.632 437.082 371.868C429.029 352.201 393.85 345.281 317.444 330.256L310.659 328.929C-10.955 290.423 58.9798 166.948 132.86 36.5418C134.53 33.5955 136.185 30.667 137.851 27.7101L137.129 28.0814C135.553 30.8819 133.954 33.6791 132.374 36.469C58.3977 167.07 -11.6517 290.748 310.422 329.313L317.211 330.65C393.48 345.646 428.594 352.556 436.592 372.075C443.409 388.729 430.565 414.644 406.729 462.647C399.972 476.239 392.356 491.609 384.045 509.044C364.407 556.876 412.823 591.042 458.061 621.966L458.553 621.71L458.531 621.706Z" fill="#2A699C" fill-opacity="0.3"/>
<path d="M453.452 624.339C410.663 595.861 367.119 562.984 384.302 515.753C395.917 488.804 406.701 466.836 415.597 448.71C443.425 391.979 407.741 352.835 308.546 331.277C-4.69818 287.163 60.0305 174.465 130.501 51.7794C135.975 42.2608 141.465 32.6749 146.824 23.0691L146.084 23.4476C140.801 32.9148 135.396 42.3338 130.016 51.7066C59.4301 174.595 -5.41697 287.485 308.287 331.658C407.331 352.913 442.935 391.916 415.101 448.666C406.205 466.792 395.424 488.771 383.795 515.737C366.549 563.139 410.097 596.086 452.96 624.595L453.452 624.339Z" fill="#2A699C" fill-opacity="0.3"/>
<path d="M448.23 627.049C408.017 600.784 369.211 569.057 384.052 522.454C397.176 488.419 410.213 462.403 420.425 442.027C456.247 370.528 457.336 368.344 306.392 333.637C-0.659864 284.128 61.1684 179.576 129.764 63.5416C138.548 48.6854 147.451 33.6372 155.691 18.4897L154.969 18.861C146.796 33.8488 137.987 48.7512 129.297 63.4616C60.5642 179.695 -1.36424 284.432 306.155 334.021C456.691 368.637 455.597 370.81 419.947 441.975C409.739 462.362 396.687 488.396 383.568 522.441C368.658 569.204 407.487 600.995 447.756 627.297L448.248 627.041L448.23 627.049Z" fill="#2A699C" fill-opacity="0.3"/>
<path d="M442.879 629.808C405.451 605.529 371.195 574.893 383.812 529.125C397.234 489.681 412.226 461.101 423.516 439.548C456.144 377.29 458.176 373.439 304.237 335.996C1.80442 281.245 62.2376 182.997 130.077 72.7234C141.938 53.4436 154.008 33.8153 164.433 13.9707L163.729 14.3348C153.372 34.0197 141.377 53.5094 129.61 72.6433C61.6555 183.12 1.0962 281.539 304 336.38C457.53 373.732 455.513 377.565 423.041 439.507C411.737 461.078 396.75 489.669 383.299 529.148C370.646 575.051 404.907 605.757 442.391 630.074L442.883 629.818L442.879 629.808Z" fill="#2A699C" fill-opacity="0.3"/>
<path d="M437.455 632.604C402.996 610.069 373.087 580.484 383.568 535.795C396.446 492.134 413.302 461.895 425.673 439.695C456.77 383.94 459.767 378.546 302.089 338.325C3.02876 278.465 63.19 185.181 131.07 79.928C145.88 56.9644 161.063 33.4176 172.97 9.5296L172.285 9.88639C160.427 33.6219 145.333 57.0124 130.621 79.8407C62.6223 185.286 2.33498 278.741 301.83 338.705C459.096 378.825 456.109 384.191 425.191 439.633C412.809 461.861 395.939 492.118 383.054 535.818C372.553 580.624 402.467 610.28 436.963 632.86L437.455 632.604Z" fill="#2A699C" fill-opacity="0.3"/>
<path d="M432.009 635.429C400.689 614.414 374.881 585.833 383.325 542.496C395.033 495.483 413.764 464.197 427.305 441.593C457.869 390.543 461.97 383.696 299.964 340.688C3.32238 275.797 64.0346 186.462 132.572 85.6222C150.319 59.5227 168.576 32.6406 181.318 5.23181L180.633 5.5886C167.903 32.8595 149.75 59.5674 132.119 85.5243C63.4449 186.563 2.60654 276.07 299.705 341.069C461.316 383.967 457.226 390.786 426.863 441.527C413.308 464.149 394.57 495.474 382.841 542.544C374.373 585.986 400.19 614.648 431.543 635.699L432.035 635.443L432.009 635.429Z" fill="#2A699C" fill-opacity="0.3"/>
<path d="M426.615 638.22C398.555 618.482 376.535 590.909 383.096 549.178C393.209 499.489 413.866 467.522 428.629 444.662C459.367 397.094 464.679 388.86 297.83 343.029C2.79768 273.175 64.7221 187.017 134.411 90.0567C155.095 61.2806 176.422 31.5722 189.375 1.04823L188.708 1.39779C175.761 31.7627 154.526 61.3253 133.954 89.9483C64.1285 187.108 2.07804 273.437 297.549 343.407C463.985 389.135 458.695 397.313 428.162 444.582C413.384 467.46 392.702 499.473 382.571 549.229C376.005 591.059 398.011 618.71 426.104 638.484L426.597 638.228L426.615 638.22Z" fill="#2A699C" fill-opacity="0.3"/>
<path d="M421.311 640.96C396.564 622.298 378.02 595.735 382.834 555.87C391.019 504.024 413.616 471.649 429.691 448.605C461.06 403.65 467.738 394.112 295.65 345.398C1.57672 270.633 65.255 187.016 136.483 93.5024C160.142 62.4451 184.6 30.309 197.143 -2.96344L196.491 -2.6317C183.931 30.4784 159.584 62.4614 136.041 93.3761C64.6759 187.089 0.853232 270.884 295.387 345.768C467.033 394.356 460.417 403.833 429.238 448.507C413.131 471.576 390.508 503.997 382.313 555.932C377.49 595.885 396.02 622.526 420.805 641.234L421.297 640.978L421.311 640.96Z" fill="#2A699C" fill-opacity="0.3"/>
<path d="M416.232 643.587C394.771 625.817 379.36 600.293 382.602 562.55C388.607 508.949 413.166 476.338 430.649 453.146C463.044 410.162 471.165 399.362 293.533 347.73C-0.157442 268.077 65.727 186.519 138.816 96.0714C165.483 63.0577 193.086 28.8754 204.599 -6.8388L203.965 -6.5143C192.412 29.0342 164.925 63.074 138.388 95.9274C65.1441 186.582 -0.870307 268.3 293.262 348.079C470.474 399.588 462.389 410.314 430.221 453.002C412.713 476.24 388.107 508.894 382.092 562.583C378.836 600.404 394.271 625.992 415.75 643.815L416.242 643.559L416.232 643.587Z" fill="#2A699C" fill-opacity="0.3"/>
<path d="M411.474 646.045C393.203 629.012 380.499 604.623 382.361 569.24C385.993 514.215 412.54 481.503 431.475 458.168C465.147 416.694 474.896 404.68 291.388 350.08C-2.41503 265.555 66.0777 185.667 141.268 97.9713C171.004 63.2796 201.784 27.3759 211.699 -10.5057L211.065 -10.1813C201.092 27.5419 170.446 63.2959 140.84 97.8272C65.4727 185.726 -3.16444 265.793 291.084 350.454C474.146 404.917 464.47 416.843 431.028 458.031C412.046 481.409 385.456 514.174 381.822 569.31C379.947 604.77 392.674 629.223 410.959 646.298L411.451 646.042L411.474 646.045Z" fill="#2A699C" fill-opacity="0.3"/>
<path d="M407.627 648.04C392.411 631.715 382.082 608.58 382.739 575.814C383.867 519.754 412.324 487.128 432.734 463.715C468.166 423.064 479.765 409.759 289.608 352.014C-4.18349 262.787 67.0847 184.453 144.417 99.446C177.435 63.1484 211.541 25.6454 219.216 -14.39L217.156 -13.3301C209.212 26.1356 175.587 63.1213 143.014 98.9161C65.0817 184.572 -6.736 263.523 288.622 353.215C477.261 410.512 465.943 423.501 431.321 463.214C410.763 486.794 382.132 519.634 380.984 576.101C380.319 609.075 390.713 632.389 406.023 648.858L407.624 648.029L407.627 648.04Z" fill="#2A699C" fill-opacity="0.3"/>
<g opacity="0.38">
<path d="M222.606 -299.253C223.66 -298.766 224.695 -298.271 225.689 -297.772C275.829 -272.927 273.026 -234.259 191.91 -166.411L191.877 -166.386C162.48 -138.956 138.453 -111.69 118.972 -84.9014C99.4903 -58.1129 84.5369 -31.7945 73.2989 -6.28796C15.5034 124.83 55.7265 234.666 81.436 278.735C78.463 383.676 159.846 381.347 245.326 378.913C267.725 378.264 290.4 377.626 311.89 378.909C397.207 383.992 464.023 419.557 421.522 606.939L422.318 606.599C464.729 419.144 397.626 383.536 312.008 378.427C290.459 377.156 267.763 377.79 245.36 378.429C160.232 380.856 79.1611 383.181 82.1582 278.653L82.1277 278.569C56.4632 234.566 16.234 124.83 73.9978 -6.20321C85.2251 -31.6814 100.168 -57.9714 119.639 -84.7315C139.109 -111.492 163.104 -138.733 192.468 -166.138C273.954 -234.29 276.671 -273.141 226.172 -298.169C225.233 -298.63 224.272 -299.093 223.315 -299.547L222.628 -299.25L222.606 -299.253Z" fill="#2A699C" fill-opacity="0.3"/>
<path d="M220.381 -298.31C223.867 -296.868 227.163 -295.375 230.229 -293.827C278.097 -269.662 274.237 -231.203 191.764 -163.298L191.713 -163.266C162.334 -136.362 138.188 -109.424 118.521 -82.8029C98.8539 -56.1821 83.6395 -29.8929 72.12 -4.2986C12.917 127.258 51.3961 240.238 83.0661 283.353C90.0762 380.68 169.719 378.849 250.892 376.979C272.386 376.484 293.988 375.995 314.369 377.331C397.225 382.825 459.838 419.009 412.664 610.675L413.46 610.335C460.544 418.595 397.67 382.382 314.491 376.86C294.061 375.506 272.442 376.003 250.926 376.494C170.065 378.362 90.7119 380.185 83.773 283.229L83.7425 283.145C52.1213 240.107 13.6438 127.247 72.815 -4.22444C84.3056 -29.7831 99.5056 -56.0544 119.162 -82.6469C138.819 -109.239 162.95 -136.16 192.3 -163.028L192.337 -163.043C275.14 -231.247 278.931 -269.897 230.708 -294.235C227.694 -295.755 224.49 -297.224 221.078 -298.635L220.392 -298.338L220.381 -298.31Z" fill="#2A699C" fill-opacity="0.3"/>
<path d="M217.95 -297.288C224.01 -295.081 229.521 -292.717 234.425 -290.184C280.38 -266.575 275.472 -228.243 191.594 -160.179L191.515 -160.111C162.15 -133.745 137.894 -107.113 118.037 -80.67C98.1797 -54.2274 82.7118 -27.9463 70.9291 -2.27156C10.3369 129.716 47.0902 245.834 84.7024 288.001C101.311 377.806 179.378 376.409 256.453 375.043C277.178 374.672 297.841 374.303 317.189 375.723C397.655 381.598 455.794 418.401 403.802 614.469L404.598 614.129C456.523 417.99 398.119 381.149 317.333 375.256C297.922 373.835 277.238 374.202 256.494 374.58C179.694 375.957 101.914 377.337 85.391 287.885L85.3566 287.79C47.7644 245.736 11.0531 129.734 71.599 -2.15118C83.3711 -27.7975 98.8285 -54.0503 118.675 -80.4645C138.517 -106.889 162.745 -133.486 192.077 -159.827L192.142 -159.877C276.357 -228.22 281.193 -266.753 234.883 -290.535C230.012 -293.033 224.593 -295.373 218.644 -297.563L217.939 -297.259L217.95 -297.288Z" fill="#2A699C" fill-opacity="0.3"/>
<path d="M215.372 -296.178C224.099 -293.352 231.801 -290.24 238.411 -286.802C282.714 -263.661 276.807 -225.379 191.479 -157.053L191.192 -156.806C161.869 -130.963 137.512 -104.665 117.487 -78.3979C97.448 -52.1125 81.7373 -25.8677 69.7096 -0.1198C7.81186 132.242 42.7982 251.441 86.3814 292.625C112.209 375.011 188.827 373.996 262.056 373.023C282.151 372.758 301.996 372.495 320.441 373.96C398.574 380.195 451.956 417.643 394.957 618.225L395.771 617.878C452.67 417.25 399.056 379.738 320.585 373.493C302.092 372.01 282.21 372.287 262.097 372.559C189.132 373.512 112.768 374.535 87.073 292.459L87.0425 292.375C43.5195 251.3 8.54632 132.252 70.3978 -0.00667985C82.4331 -25.7334 98.1294 -51.9604 118.14 -78.2102C138.15 -104.46 162.474 -130.733 191.769 -156.54L192.037 -156.779C277.688 -225.366 283.541 -263.857 238.901 -287.178C232.362 -290.596 224.733 -293.677 216.116 -296.486L215.394 -296.175L215.372 -296.178Z" fill="#2A699C" fill-opacity="0.3"/>
<path d="M212.598 -295C224.085 -291.701 234.003 -287.947 242.138 -283.641C285.048 -260.888 278.131 -222.567 191.332 -153.923L191.266 -153.873C161.921 -128.552 137.427 -102.575 117.176 -76.471C96.9292 -50.3566 80.9429 -24.1232 68.5972 1.72686C5.17182 134.599 38.4523 257.049 87.9998 297.289C122.589 372.376 197.914 371.657 267.546 371.014C287.169 370.828 306.354 370.646 324.007 372.173C399.875 378.727 448.149 416.888 386.037 622.039L386.851 621.691C448.904 416.491 400.365 378.291 324.17 371.698C306.454 370.172 287.247 370.35 267.624 370.536C198.205 371.191 123.144 371.89 88.6944 297.073L88.6639 296.988C39.1583 256.865 5.91695 134.58 69.2999 1.82217C81.6349 -23.9995 97.5923 -50.1973 117.829 -76.2834C138.047 -102.362 162.526 -128.322 191.825 -153.599L191.872 -153.642C279.012 -222.555 285.875 -261.084 242.61 -284.01C234.527 -288.288 224.719 -292.025 213.343 -295.308L212.602 -294.99L212.598 -295Z" fill="#2A699C" fill-opacity="0.3"/>
<path d="M209.664 -293.754C224.031 -290.112 236.149 -285.819 245.686 -280.694C287.413 -258.268 279.506 -219.856 191.182 -150.811L191.145 -150.796C161.818 -126.003 137.206 -100.353 116.769 -74.4164C96.332 -48.4803 80.0702 -22.2581 67.4613 3.67234C2.61398 137 34.1542 262.606 89.6843 301.894C132.563 369.823 206.742 369.342 273.065 368.902C292.395 368.772 311.06 368.652 328.064 370.231C401.722 377.084 444.525 416.053 377.139 625.788L377.971 625.433C445.28 415.657 402.234 376.651 328.226 369.756C311.178 368.17 292.491 368.287 273.121 368.421C207 368.841 133.033 369.335 90.3194 301.63L90.2562 301.57C34.8305 262.398 3.35146 136.961 68.1418 3.76435C80.7401 -22.1377 96.9692 -48.3348 117.395 -74.2426C137.8 -100.154 162.397 -125.786 191.696 -150.544L191.692 -150.554C280.394 -219.883 288.211 -258.489 246.169 -281.091C236.683 -286.189 224.632 -290.472 210.415 -294.101L209.656 -293.775L209.664 -293.754Z" fill="#2A699C" fill-opacity="0.3"/>
<path d="M206.553 -292.431C223.861 -288.569 238.254 -283.815 249.099 -277.904C289.786 -255.754 280.931 -217.194 191.037 -147.695L191 -147.681C161.669 -123.417 136.943 -98.0836 116.32 -72.3152C95.6934 -46.5574 79.1782 -20.3433 66.2839 5.66432C0.0108962 139.438 29.8291 268.192 91.3197 306.525C141.961 367.457 215.188 367.112 278.491 366.809C297.729 366.715 316.054 366.634 332.537 368.275C404.04 375.404 440.938 415.306 368.166 629.608L369.017 629.246C441.71 414.903 404.57 374.964 332.699 367.8C316.172 366.153 297.807 366.237 278.547 366.328C215.413 366.636 142.377 366.989 91.9251 306.236L91.8657 306.188C30.5016 267.973 0.766622 139.391 66.9683 5.76688C79.8298 -20.2156 96.3383 -46.3908 116.947 -72.1414C137.559 -97.8814 162.257 -123.179 191.537 -147.41C281.786 -217.196 290.569 -255.957 249.545 -278.287C238.73 -284.173 224.465 -288.918 207.305 -292.778L206.509 -292.438L206.553 -292.431Z" fill="#2A699C" fill-opacity="0.3"/>
<path d="M203.275 -291.036C223.613 -287.049 240.27 -281.926 252.37 -275.258C292.166 -253.322 282.387 -214.6 190.911 -144.569L190.893 -144.562C161.584 -120.814 136.736 -95.819 115.923 -70.2289C95.096 -44.6209 78.3157 -18.4464 65.1621 7.65214C-2.53666 141.871 25.5452 273.792 93.0144 311.163C150.845 365.3 223.283 364.967 283.888 364.709C303.273 364.618 321.454 364.545 337.524 366.254C406.927 373.638 437.501 414.59 359.249 633.425L360.1 633.063C438.304 414.211 407.464 373.219 337.69 365.789C321.554 364.071 303.355 364.15 283.948 364.239C223.471 364.506 151.217 364.826 93.5901 310.85L93.5345 310.811C26.1918 273.559 -1.79534 141.843 65.832 7.77249C78.975 -18.2977 95.7408 -44.4543 116.539 -70.0266C137.337 -95.599 162.171 -120.576 191.433 -144.281C283.269 -214.588 292.993 -253.517 252.864 -275.624C240.812 -282.274 224.262 -287.392 204.075 -291.366L203.261 -291.018L203.275 -291.036Z" fill="#2A699C" fill-opacity="0.3"/>
<path d="M199.826 -289.564C223.282 -285.56 242.282 -280.135 255.541 -272.744C294.542 -250.987 283.881 -212.048 190.772 -141.452C186.955 -138.438 183.249 -135.407 179.594 -132.349C81.4904 -50.2747 35.1748 48.5006 25.6438 133.229C16.106 217.997 43.3824 288.742 92.4839 314.701C93.209 315.089 93.9265 315.456 94.644 315.823C159.05 363.374 230.896 362.963 289.153 362.622C308.928 362.509 327.119 362.408 342.922 364.187C410.279 371.803 434.075 413.988 350.241 637.25L351.11 636.881C434.895 413.601 410.853 371.37 343.106 363.715C327.256 361.919 309.005 362.031 289.209 362.141C231.076 362.48 159.396 362.886 95.1823 315.464L95.1305 315.437C94.3948 315.077 93.6735 314.699 92.9523 314.321C44.0061 288.446 16.8235 217.845 26.3524 133.226C35.8698 48.5748 82.1429 -50.087 180.13 -132.079C183.789 -135.127 187.495 -138.157 191.275 -141.157C284.74 -212.039 295.369 -251.182 256.013 -273.113C242.784 -280.479 223.909 -285.905 200.64 -289.912L199.808 -289.557L199.826 -289.564Z" fill="#2A699C" fill-opacity="0.3"/>
<path d="M196.222 -288.038C222.871 -284.094 244.246 -278.454 258.639 -270.353C296.98 -248.745 285.409 -209.553 190.626 -138.329C179.472 -129.681 168.923 -120.804 158.953 -111.709C72.5933 -32.8995 30.7291 60.9788 22.7074 141.798C14.6714 222.635 40.4855 290.435 89.4639 317.034C91.6986 318.248 93.9872 319.38 96.3259 320.419C166.695 361.651 238.108 361.025 294.366 360.525C314.803 360.342 333.226 360.185 348.853 362.058C414.197 369.882 430.78 413.483 341.287 641.072L342.155 640.702C431.59 413.125 414.797 369.463 349.041 361.596C333.348 359.714 314.889 359.885 294.425 360.055C238.292 360.553 167.008 361.189 96.824 320.064L96.8164 320.043C94.4814 319.014 92.1928 317.882 89.9581 316.668C41.1534 290.145 15.4147 222.497 23.4342 141.787C31.4461 61.0563 73.2641 -32.7191 159.544 -111.461C169.481 -120.53 180.03 -129.408 191.167 -138.048C286.29 -209.541 297.807 -248.94 259.129 -270.729C244.784 -278.813 223.535 -284.454 197.091 -288.407L196.24 -288.045L196.222 -288.038Z" fill="#2A699C" fill-opacity="0.3"/>
<path d="M192.438 -286.43C222.349 -282.646 246.182 -276.847 261.62 -268.051C299.376 -246.56 286.942 -207.098 190.48 -135.207C172.514 -121.606 156.06 -107.29 141.103 -92.47C64.5026 -16.5833 26.5376 72.8348 19.824 150.054C13.1182 227.295 37.7261 292.336 86.2455 319.456C90.0127 321.559 93.9273 323.434 97.9672 325.078C173.645 360.263 244.803 359.279 299.406 358.531C320.785 358.239 339.628 357.976 355.161 359.934C418.548 367.944 427.417 413.196 332.221 644.935L333.09 644.566C428.223 412.827 419.155 367.546 355.35 359.473C339.728 357.501 320.863 357.761 299.443 358.057C244.947 358.811 173.896 359.801 98.3913 324.692L98.3875 324.682C94.337 323.066 90.4445 321.194 86.7032 319.105C38.3248 292.086 13.8251 227.171 20.5182 150.068C27.2182 72.9268 65.1369 -16.3884 141.662 -92.1966C156.604 -106.999 173.021 -121.301 190.973 -134.883C287.784 -207.022 300.156 -246.713 262.086 -268.381C246.677 -277.153 222.987 -282.96 193.296 -286.77L192.409 -286.394L192.438 -286.43Z" fill="#2A699C" fill-opacity="0.3"/>
<path d="M187.445 -284.294C220.94 -280.763 247.455 -274.881 263.956 -265.396C300.83 -244.207 287.457 -204.686 189.73 -132.425C165.382 -114.417 143.745 -94.9739 124.703 -74.5926C56.2762 -1.2769 21.6844 84.1316 16.166 158.074C10.6417 232.115 34.2722 294.743 82.2952 322.337C87.6178 325.392 93.2467 328.024 99.1702 330.2C179.693 359.728 250.899 358.242 304.303 357.124C326.892 356.654 346.269 356.251 361.693 358.313C422.584 366.409 423.107 413.466 322.144 649.235L325.111 647.972C425.928 412.261 424.82 365.085 362.365 356.765C346.662 354.682 327.16 355.085 304.424 355.554C251.306 356.655 180.452 358.134 100.461 328.805C94.6818 326.681 89.1566 324.104 83.9413 321.115C36.418 293.806 13.0362 231.635 18.5299 158.029C24.0334 84.3337 58.5008 -0.783698 126.671 -73.8282C145.619 -94.1238 167.157 -113.492 191.411 -131.414C290.359 -204.571 303.517 -244.804 265.57 -266.593C249.176 -276.012 223.167 -281.937 190.398 -285.539L187.394 -284.261L187.445 -284.294Z" fill="#2A699C" fill-opacity="0.3"/>
</g>
<path d="M416.301 615.012C425.573 577.603 404.1 553.907 363.531 535.551C207.062 464.724 205.851 354.682 205 276.638C204.589 238.897 204.257 208.65 186.454 194.005C103.642 125.816 110.039 80.2844 158.237 39.8885C188.587 14.459 235.478 -8.88132 287.095 -34.5702C320.787 -51.3378 356.513 -69.1191 390.897 -89.1093C499.393 -152.205 594.756 -237.527 572.489 -383.739L573.221 -383.849C595.407 -237.459 499.782 -151.937 391.01 -88.6828C356.593 -68.6676 320.83 -50.8718 287.12 -34.097C235.609 -8.46217 188.787 14.8386 158.586 40.1606C110.773 80.2345 104.534 125.51 187.082 193.49C204.956 208.215 205.285 238.512 205.697 276.313C206.543 354.286 207.741 464.237 364.103 534.997C404.824 553.426 426.347 577.259 416.953 614.91L416.301 615.012Z" fill="#2A699C" fill-opacity="0.3"/>
<path d="M416.041 615.059C428.621 575.998 407.965 551.156 363.01 532.622C202.944 462.475 202.455 348.135 202.099 268.168C201.947 232.414 201.822 203.546 187.462 188.608C111.449 120.049 121.08 74.7427 170.011 34.7563C199.782 10.4387 244.066 -11.8539 292.43 -36.2022C324.861 -52.5294 359.129 -69.7798 392.079 -89.1759C497.64 -151.323 589.577 -235.61 563.689 -382.365L564.44 -382.482C590.25 -235.539 498.066 -151.069 392.214 -88.7462C359.231 -69.3251 324.944 -52.0673 292.495 -35.7329C244.2 -11.4242 199.986 10.8289 170.345 35.0462C121.799 74.7107 112.33 119.771 188.116 188.107C202.521 203.112 202.665 232.032 202.814 267.836C203.166 347.732 203.664 461.984 363.582 532.068C408.725 550.66 429.431 575.64 416.712 614.949L416.06 615.051L416.041 615.059Z" fill="#2A699C" fill-opacity="0.3"/>
<path d="M415.569 615.138C431.616 574.409 411.935 548.395 362.495 529.698C198.362 460.14 198.915 340.772 199.288 258.836C199.436 225.415 199.562 198.223 188.455 183.213C119.176 114.165 132.21 69.0285 182.053 29.4286C211.136 6.32645 252.733 -14.8504 297.819 -37.8119C328.961 -53.663 361.757 -70.365 393.244 -89.1312C495.924 -150.351 584.491 -233.565 554.856 -380.982L555.589 -381.092C585.124 -233.49 496.328 -150.101 393.352 -88.7154C361.833 -69.924 329 -53.2076 297.844 -37.3387C252.827 -14.4167 211.303 6.73112 182.351 29.733C132.882 69.0394 120.042 113.905 189.094 182.729L189.098 182.74C200.265 197.799 200.132 225.03 199.984 258.511C199.607 340.376 199.06 459.646 363.027 529.148C412.674 547.896 432.39 574.065 416.202 615.043L415.569 615.138Z" fill="#2A699C" fill-opacity="0.3"/>
<path d="M414.896 615.233C434.536 572.835 415.998 545.594 361.981 526.771C193.214 457.677 195.27 332.361 196.643 248.457C197.149 217.757 197.557 192.615 189.474 177.828C126.883 108.104 143.521 63.1184 194.518 23.8211C222.768 2.05255 261.562 -17.9261 303.24 -39.4006C333.092 -54.7756 364.42 -70.9184 394.414 -89.0193C494.306 -149.289 579.474 -231.393 546.009 -379.584L546.76 -379.701C580.147 -231.323 494.71 -149.038 394.545 -88.6001C364.5 -70.4669 333.135 -54.3096 303.268 -38.9168C261.642 -17.4746 222.92 2.47501 194.787 24.1611C144.161 63.1542 127.703 107.887 190.103 177.373L190.111 177.394C198.235 192.237 197.824 217.428 197.311 248.168C195.933 332.001 193.865 457.225 362.484 526.257C416.716 545.152 435.285 572.538 415.504 615.184L414.871 615.279L414.896 615.233Z" fill="#2A699C" fill-opacity="0.3"/>
<path d="M413.992 615.382C437.369 571.306 420.154 542.814 361.449 523.848C187.267 455.082 191.492 322.599 194.212 236.82C195.09 209.341 195.804 186.663 190.468 172.427C134.499 101.787 155.074 56.8924 207.521 17.8525C234.745 -2.42153 270.551 -21.0799 308.708 -40.9743C337.256 -55.8555 367.138 -71.4359 395.666 -88.8575C492.792 -148.173 574.58 -229.116 537.155 -378.209L537.924 -378.334C575.263 -229.073 493.206 -147.951 395.811 -88.4561C367.232 -71.0022 337.332 -55.4146 308.751 -40.5083C270.663 -20.6535 234.898 -1.99905 207.786 18.1819C155.721 56.9495 135.359 101.567 191.137 171.968L191.149 172C196.522 186.281 195.797 208.987 194.931 236.498C192.188 322.214 187.965 454.587 361.981 523.299C420.896 542.326 438.128 570.98 414.629 615.297L413.996 615.392L413.992 615.382Z" fill="#2A699C" fill-opacity="0.3"/>
<path d="M412.881 615.55C440.119 569.796 424.377 540.006 360.93 520.919C180.335 452.261 187.675 310.954 192.212 223.559C193.438 199.929 194.462 180.244 191.497 167.023C142.112 95.1322 167.032 50.299 221.338 11.3778C247.257 -7.19383 279.834 -24.3882 314.219 -42.5303C341.518 -56.9395 369.939 -71.9395 397.022 -88.6786C491.431 -147.023 569.817 -226.747 528.296 -376.834L529.065 -376.959C570.501 -226.705 491.863 -146.808 397.168 -88.2772C370.015 -71.4986 341.575 -56.4913 314.276 -42.0822C279.924 -23.9651 247.402 -6.79248 221.567 11.7218C167.661 50.3632 142.961 94.9398 192.17 166.575L192.185 166.617C195.165 179.88 194.131 199.593 192.898 223.263C188.375 310.58 181.055 451.769 361.462 520.369C425.123 539.529 440.901 569.473 413.537 615.459L412.885 615.561L412.881 615.55Z" fill="#2A699C" fill-opacity="0.3"/>
<path d="M411.575 615.757C442.796 568.312 428.668 537.216 360.392 517.994C171.981 449.144 183.871 296.632 190.762 208.241C192.244 189.244 193.488 173.228 192.466 161.627C149.673 87.9871 179.575 43.1313 236.242 4.21434C260.394 -12.3746 289.411 -27.8649 319.703 -44.043C345.743 -57.9517 372.762 -72.3827 398.441 -88.4431C490.19 -145.827 565.103 -224.244 519.34 -375.436L520.131 -375.558C565.801 -224.22 490.626 -145.602 398.586 -88.0417C372.875 -71.9563 345.837 -57.518 319.761 -43.5949C289.487 -27.424 260.524 -11.9555 236.438 4.58334C180.157 43.2384 150.479 87.8481 193.143 161.189L193.162 161.242C194.173 172.871 192.918 188.916 191.444 207.934C184.552 296.265 172.675 448.638 360.898 517.431C429.407 536.717 443.569 567.968 412.209 615.662L411.557 615.764L411.575 615.757Z" fill="#2A699C" fill-opacity="0.3"/>
<path d="M410.073 615.991C445.4 566.854 433.057 534.397 359.873 515.06C161.513 445.487 180.438 278.077 190.386 190.054C191.885 176.764 193.182 165.281 193.499 156.228C157.262 80.104 193.184 35.1514 253.024 -3.9993C274.752 -18.2243 299.609 -31.651 325.3 -45.5419C350.152 -58.9791 375.792 -72.8377 400.111 -88.2129C489.248 -144.62 560.626 -221.669 510.488 -374.046L511.28 -374.167C561.328 -221.634 489.703 -144.402 400.275 -87.8188C375.927 -72.408 350.25 -58.5348 325.379 -45.0904C299.703 -31.2173 274.883 -17.8052 253.224 -3.61975C193.792 35.2724 158.116 79.9822 194.206 155.814L194.225 155.867C193.897 164.948 192.608 176.452 191.098 189.772C181.164 277.716 162.251 444.988 360.405 514.51C433.817 533.902 446.178 566.521 410.729 615.9L410.077 616.002L410.073 615.991Z" fill="#2A699C" fill-opacity="0.3"/>
<path d="M408.378 616.254C447.919 565.431 437.535 531.58 359.364 512.134L359.345 512.141C147.24 440.878 178.115 251.834 191.854 167.656C192.869 161.455 193.796 155.82 194.515 150.824C156.554 48.3395 239.148 3.1687 330.872 -47.0069C354.597 -59.9838 378.915 -73.2812 401.903 -88.0068C488.495 -143.427 556.211 -218.997 501.535 -372.663L502.327 -372.784C556.927 -218.979 488.931 -143.202 402.07 -87.6021C379.028 -72.8548 354.677 -59.5323 330.952 -46.5554C239.624 3.38997 157.381 48.3735 195.211 150.439L195.234 150.502C194.489 155.485 193.569 161.141 192.548 167.381C178.804 251.488 147.96 440.387 359.87 511.57C438.269 531.07 448.688 565.077 409.03 616.152L408.359 616.261L408.378 616.254Z" fill="#2A699C" fill-opacity="0.3"/>
<path d="M406.479 616.553C450.355 564.032 442.066 528.756 358.826 509.21C245.18 472.731 199.682 400.733 184.954 328.372C170.198 256.046 186.187 183.343 195.522 145.415C168.736 44.3853 249.344 -0.214045 336.477 -48.4205C359.11 -60.9517 382.217 -73.7315 403.958 -87.8047C488.026 -142.234 551.968 -216.232 492.603 -371.261L493.413 -371.389C552.702 -216.222 488.496 -142.034 404.14 -87.4179C382.366 -73.3196 359.244 -60.522 336.575 -47.9763C249.806 0.0250462 169.53 44.4443 196.248 145.054L196.238 145.142C186.91 183.032 170.928 255.696 185.669 327.979C200.409 400.263 245.84 472.19 359.351 508.64C442.841 528.243 451.183 563.667 407.172 616.447L406.498 616.546L406.479 616.553Z" fill="#2A699C" fill-opacity="0.3"/>
<path d="M404.403 616.863C405.354 615.797 406.286 614.738 407.2 613.686C452.446 561.2 444.952 525.525 358.309 506.268L358.287 506.264C326.541 496.542 299.995 483.934 277.876 469.191C255.757 454.449 238.091 437.587 224.078 419.395C152.067 325.873 177.221 197.105 196.531 139.994C180.623 40.5246 259.377 -3.5434 342.073 -49.8177C363.746 -61.9433 385.677 -74.22 406.241 -87.6805C487.849 -141.12 547.852 -213.421 483.624 -369.887L484.434 -370.016C548.601 -213.428 488.336 -140.927 406.441 -87.3009C385.826 -73.8081 363.876 -61.5242 342.185 -49.3913C259.817 -3.30763 181.373 40.577 197.242 139.651L197.232 139.739C177.95 196.755 152.787 325.441 224.754 418.897C238.737 437.065 256.399 453.916 278.492 468.644C300.585 483.373 327.11 495.978 358.808 505.683C445.815 525.025 453.268 560.934 407.698 613.791C406.863 614.774 405.988 615.762 405.114 616.75L404.421 616.856L404.403 616.863Z" fill="#2A699C" fill-opacity="0.3"/>
<path d="M402.128 617.231C405.316 613.863 408.295 610.554 411.066 607.303C454.22 556.771 445.72 521.894 357.769 503.35L357.725 503.343C326.056 494.122 299.438 481.892 277.164 467.416C254.895 452.951 236.956 436.258 222.695 418.128C149.275 324.984 172.351 194.168 197.516 134.597C192.188 36.7833 269.191 -6.75803 347.683 -51.145C368.469 -62.894 389.357 -74.7077 408.831 -87.6024C488.026 -140.035 543.898 -210.537 474.608 -368.471L475.418 -368.6C544.625 -210.548 488.505 -139.863 409.009 -87.2261C389.484 -74.2991 368.578 -62.4782 347.759 -50.7041C269.576 -6.5005 192.851 36.8826 198.202 134.3L198.178 134.406C173.041 193.881 149.945 324.585 223.32 417.662C237.57 435.761 255.483 452.44 277.748 466.894C300.014 481.349 326.592 493.583 358.231 502.779L358.239 502.801C446.55 521.419 455.006 556.519 411.548 607.425C408.835 610.605 405.914 613.843 402.806 617.143L402.095 617.256L402.128 617.231Z" fill="#2A699C" fill-opacity="0.3"/>
<path d="M399.679 617.612C405.241 612.033 410.262 606.632 414.693 601.392C456.057 552.49 446.564 518.333 357.257 500.425L357.168 500.411C325.598 491.695 298.9 479.822 276.462 465.642C254.039 451.443 235.849 434.922 221.302 416.869C146.496 324.107 167.499 191.252 198.533 129.204C203.394 33.177 278.817 -9.88183 353.303 -52.4117C373.326 -63.8455 393.299 -75.2471 411.774 -87.6121C488.633 -139.056 540.097 -207.602 465.623 -367.052L466.433 -367.181C540.838 -207.631 489.131 -138.892 411.97 -87.2431C393.448 -74.8351 373.457 -63.4264 353.398 -51.978C279.188 -9.60648 204.042 33.294 199.213 128.946L199.188 129.053C168.193 190.976 147.203 323.694 221.942 416.386C236.477 434.407 254.626 450.932 277.042 465.109C299.458 479.287 326.112 491.152 357.656 499.855L357.726 499.876C447.391 517.847 456.843 552.238 415.154 601.511C410.78 606.679 405.843 612.023 400.357 617.524L399.625 617.634L399.679 617.612Z" fill="#2A699C" fill-opacity="0.3"/>
<path d="M397.052 618.026C405.11 610.343 412.148 602.957 418.085 595.875C457.926 548.363 447.466 514.82 356.742 497.499L356.443 497.424C324.968 489.201 298.217 477.7 275.639 463.768C253.061 449.836 234.653 433.463 219.843 415.49C143.732 323.102 162.669 188.288 199.544 123.8C214.22 29.6831 288.199 -12.9228 358.911 -53.6509C378.317 -64.8276 397.483 -75.8605 415.08 -87.7678C489.642 -138.228 536.429 -204.697 456.592 -365.64L457.424 -365.765C537.192 -204.723 490.163 -138.06 415.279 -87.3882C397.635 -75.438 378.433 -64.3906 359.009 -53.2067C288.537 -12.6224 214.817 29.8325 200.239 123.584L200.214 123.691C163.374 188.044 144.446 322.709 220.487 415.017C235.271 432.976 253.671 449.328 276.223 463.247C298.775 477.165 325.482 488.659 356.931 496.868L357.211 496.95C448.296 514.345 458.734 548.115 418.568 595.997C412.689 603.008 405.708 610.323 397.77 617.934L397.038 618.044L397.052 618.026Z" fill="#2A699C" fill-opacity="0.3"/>
<path d="M394.243 618.448C404.924 608.721 414.003 599.473 421.312 590.699C459.861 544.352 448.424 511.342 356.225 494.558L356.158 494.548C324.724 486.841 297.882 475.726 275.136 462.079C252.367 448.428 233.69 432.233 218.595 414.338C140.95 322.329 157.813 185.357 200.589 118.367C224.609 26.2993 297.309 -15.859 364.517 -54.8446C383.452 -65.8221 401.972 -76.5622 418.811 -88.0837C491.14 -137.56 532.942 -201.819 447.577 -364.25L448.409 -364.375C533.702 -201.855 491.671 -137.42 419.025 -87.7219C402.136 -76.1681 383.597 -65.4208 364.647 -54.4254C297.647 -15.5585 225.191 26.4665 201.277 118.19L201.231 118.293C158.525 185.134 141.66 321.926 219.253 413.847C234.34 431.721 252.992 447.902 275.734 461.539C298.477 475.176 325.288 486.266 356.665 493.985L356.713 494.002C449.273 510.859 460.669 544.103 421.813 590.814C414.566 599.527 405.552 608.725 395.002 618.352L394.233 618.476L394.243 618.448Z" fill="#2A699C" fill-opacity="0.3"/>
<path d="M391.257 618.919C404.639 607.249 415.804 596.206 424.371 585.833C461.797 540.476 449.427 507.946 355.706 491.634L355.666 491.637C324.326 484.424 297.394 473.695 274.476 460.321C251.553 446.937 232.625 430.915 217.245 413.097C138.169 321.463 152.99 182.427 201.637 112.959C234.528 23.0806 306.107 -18.6563 370.1 -55.9661C388.758 -66.8454 406.76 -77.3434 422.946 -88.5331C493.097 -137.047 529.523 -198.966 438.528 -362.82L439.378 -362.952C530.323 -199.006 493.664 -136.922 423.178 -88.1786C406.945 -76.946 388.907 -66.4334 370.231 -55.5469C306.431 -18.3381 235.078 23.2729 202.303 112.839L202.253 112.932C153.693 182.232 138.924 321.067 217.921 412.599C233.275 430.403 252.199 446.415 275.092 459.774C297.985 473.134 324.872 483.856 356.204 491.049L356.208 491.06C450.304 507.428 462.656 540.195 424.923 585.916C416.399 596.236 405.332 607.203 392.071 618.802L391.297 618.915L391.257 618.919Z" fill="#2A699C" fill-opacity="0.3"/>
<path d="M388.093 619.414C404.293 605.839 417.571 593.075 427.311 581.209C463.79 536.699 450.46 504.574 355.189 488.709L355.17 488.716C323.889 482.011 296.904 471.654 273.813 458.554C250.722 445.454 231.539 429.593 215.891 411.845C135.386 320.586 148.148 179.493 202.667 107.559C243.919 20.0124 314.56 -21.3157 375.619 -57.0372C394.182 -67.8908 411.863 -78.2371 427.549 -89.1921C495.584 -136.744 526.218 -196.205 429.453 -361.403L430.322 -361.542C527.028 -196.273 496.166 -136.637 427.778 -88.8482C412.044 -77.8503 394.345 -67.4967 375.75 -56.618C314.843 -20.9935 244.41 20.2159 203.305 107.475L203.251 107.557C148.836 179.316 136.136 320.179 216.545 411.343C232.185 429.071 251.342 444.917 274.411 458.014C297.476 471.1 324.432 481.433 355.673 488.142C451.345 504.077 464.616 536.443 427.848 581.309C418.155 593.132 404.976 605.821 388.932 619.31L388.122 619.438L388.093 619.414Z" fill="#2A699C" fill-opacity="0.3"/>
<path d="M384.759 619.94C403.863 604.522 419.299 590.103 430.128 576.802C465.761 533.015 451.518 501.253 354.637 485.786L354.619 485.793C323.411 479.578 296.358 469.61 273.112 456.777C249.867 443.944 230.429 428.245 214.497 410.573C132.564 319.7 143.263 176.54 203.656 102.14C252.686 17.0472 322.547 -23.8382 381.017 -58.0598C399.714 -69.0031 417.238 -79.2631 432.541 -90.0657C498.537 -136.675 522.925 -193.545 420.301 -359.991L421.17 -360.13C523.727 -193.634 499.096 -136.571 432.77 -89.7218C417.42 -78.8763 399.877 -68.609 381.144 -57.6512C322.812 -23.5088 253.108 17.2903 204.25 102.109L204.211 102.173C143.918 176.388 133.297 319.301 215.132 410.079C231.057 427.729 250.447 443.411 273.685 456.223C296.904 469.043 323.949 478.989 355.114 485.198C452.388 500.714 466.576 532.728 430.654 576.871C419.854 590.137 404.538 604.484 385.586 619.804L384.777 619.932L384.759 619.94Z" fill="#2A699C" fill-opacity="0.3"/>
<path d="M381.244 620.489C403.356 603.285 421.005 587.25 432.861 572.574C467.762 529.416 452.642 497.942 354.103 482.856C350.057 482.12 346.092 481.316 342.206 480.444C237.435 457.131 180.521 388.268 160.812 312.003C141.095 235.718 158.611 151.996 202.723 99.0305C203.38 98.25 204.019 97.4767 204.666 96.7245C260.859 14.2334 330.16 -26.2365 386.362 -59.0498C405.428 -70.1877 422.996 -80.441 437.999 -91.1487C501.978 -136.812 519.705 -191.024 411.152 -358.568L412.042 -358.704C520.53 -191.11 502.61 -136.737 438.246 -90.812C423.178 -80.0542 405.591 -69.7936 386.475 -58.6234C330.397 -25.8714 261.248 14.5015 205.221 96.7577L205.177 96.8112C204.516 97.5811 203.855 98.3511 203.216 99.1244C159.249 151.912 141.807 235.435 161.5 311.597C181.201 387.78 238.051 456.584 342.69 479.877C346.594 480.742 350.541 481.553 354.565 482.286C453.465 497.446 468.581 529.14 433.373 572.661C421.542 587.29 404.013 603.253 382.076 620.364L381.226 620.496L381.244 620.489Z" fill="#2A699C" fill-opacity="0.3"/>
<path d="M377.584 621.048C402.778 602.088 422.7 584.486 435.544 568.5C469.817 525.857 453.793 494.657 353.585 479.92C341.756 477.928 330.474 475.368 319.75 472.272C226.707 445.424 174.697 378.743 156.919 305.395C139.138 232.037 155.604 151.994 199.499 98.4863C201.499 96.049 203.577 93.6533 205.695 91.3137C268.403 11.537 337.326 -28.4803 391.633 -60.0093C411.358 -71.4578 429.132 -81.7803 443.969 -92.4828C505.993 -137.2 516.566 -188.678 402.018 -357.15L402.909 -357.287C517.387 -188.775 506.622 -137.136 444.198 -92.1389C429.309 -81.404 411.503 -71.0564 391.745 -59.5828C337.558 -28.1257 268.774 11.8123 206.225 91.3931L206.196 91.4287C204.092 93.7505 202.033 96.139 200.033 98.5763C156.264 151.913 139.858 231.775 157.615 305.01C175.366 378.284 227.328 444.887 320.278 471.712C330.998 474.797 342.262 477.364 354.069 479.353C454.653 494.147 470.639 525.591 436.077 568.59C423.263 584.54 403.461 602.07 378.46 620.93L377.592 621.069L377.584 621.048Z" fill="#2A699C" fill-opacity="0.3"/>
<path d="M373.731 621.663C402.088 600.999 424.353 581.85 438.137 564.596C471.862 522.401 454.961 491.429 353.071 477.009C334.048 474.119 316.428 469.68 300.159 463.896C216.9 434.307 169.174 369.717 153.135 299.098C137.084 228.446 152.716 151.754 196.126 98.0041C199.501 93.8248 203.035 89.7994 206.726 85.9173C275.311 8.93925 344.031 -30.5989 396.769 -60.9246C417.424 -72.8031 435.607 -83.2641 450.349 -94.001C510.458 -137.776 513.382 -186.445 392.85 -355.704L393.74 -355.841C514.236 -186.567 511.116 -137.748 450.596 -93.6643C435.789 -82.8773 417.555 -72.384 396.881 -60.4982C344.249 -30.2266 275.631 9.24693 207.213 86.0501C203.518 89.9217 199.98 93.9365 196.634 98.0802C153.35 151.659 137.796 228.163 153.823 298.691C169.858 369.241 217.52 433.771 300.683 463.325C316.927 469.096 334.529 473.541 353.526 476.418C455.809 490.887 472.673 522.103 438.66 564.654C424.886 581.879 402.782 600.953 374.618 621.516L373.727 621.652L373.731 621.663Z" fill="#2A699C" fill-opacity="0.3"/>
<path d="M368.648 622.454C400.509 599.988 425.347 579.236 440.068 560.705C472.974 519.306 455.198 488.802 351.999 474.746C326.282 471.241 303.012 464.808 282.136 455.985C207.076 424.239 163.118 361.582 148.619 293.431C134.089 225.195 149.111 151.378 191.98 97.4573C196.728 91.476 201.835 85.7385 207.274 80.2802C281.243 6.00696 350.064 -33.0764 401.671 -62.3729C423.498 -74.7651 442.24 -85.412 456.853 -96.1582C514.539 -138.608 509.215 -184.278 382.604 -354.118L385.627 -354.594C512.083 -184.717 516.878 -138.608 457.709 -95.0609C442.834 -84.1142 423.987 -73.4132 402.003 -60.9346C350.659 -31.7786 282.183 7.10689 208.703 80.884C203.388 86.2209 198.403 91.837 193.738 97.7008C151.317 151.069 136.503 224.308 150.947 292.132C165.402 360.047 209.199 422.49 283.99 454.125C304.77 462.913 327.947 469.323 353.555 472.811C458.026 487.038 475.696 518.345 441.845 560.941C427.207 579.355 402.864 599.861 371.729 621.967L368.667 622.447L368.648 622.454Z" fill="#2A699C" fill-opacity="0.3"/>
<path d="M450.8 530.319C443.964 516.728 437.918 502.437 431.961 488.388C409.88 436.282 389.295 387.676 336.464 391.936C226.148 400.807 179.73 387.928 165.7 364.608C151.653 341.296 170.035 307.6 189.301 274.845C234.825 197.438 245.059 137.748 230.804 92.7881C221.473 63.3501 201.649 40.2311 174.341 22.5735C147.034 4.91601 112.268 -7.26622 73.0408 -14.8129C49.0477 -19.4372 23.39 -22.3132 -3.23752 -23.6564L-2.55222 -24.0132C23.9102 -22.6648 49.4027 -19.7836 73.2557 -15.2002C112.531 -7.63639 147.367 4.56631 174.708 22.2589C202.071 39.9547 221.936 63.1298 231.29 92.6312C245.572 137.665 235.328 197.444 189.754 274.943C170.542 307.616 152.206 341.209 166.164 364.388C180.125 387.577 226.417 400.398 336.488 391.54C389.668 387.262 410.295 435.984 432.439 488.21C438.385 502.227 444.427 516.508 451.252 530.067L450.778 530.316L450.8 530.319Z" fill="#2A699C" fill-opacity="0.3"/>
<path d="M454.937 528.143C449.582 516.741 444.69 504.89 439.859 493.148C418.556 441.518 398.237 392.203 344.068 394.784C192.571 403.468 160.535 379.608 167.702 337.878C170.689 320.445 180.546 299.896 191.377 277.305L192.822 274.315C226.84 211.396 239.308 161.001 235.535 120.948C231.817 81.513 212.327 52.101 182.128 30.6638C151.908 9.2233 110.96 -4.23506 64.3479 -11.8194C40.2362 -15.7324 14.6303 -18.0612 -11.8241 -19.0986L-11.1244 -19.4733C15.1466 -18.4233 40.5874 -16.0893 64.5407 -12.2101C111.251 -4.64085 152.255 8.8558 182.513 30.3418C212.79 51.8206 232.325 81.2994 236.054 120.826C239.847 160.932 227.361 211.394 193.3 274.367L191.877 277.36C181.056 299.922 171.214 320.454 168.212 337.844C161.082 379.33 193.046 403.05 344.114 394.392C398.613 391.8 418.993 441.224 440.338 492.97C445.161 504.691 450.045 516.521 455.389 527.891L454.915 528.139L454.937 528.143Z" fill="#2A699C" fill-opacity="0.3"/>
<path d="M459.212 525.877C455.222 516.748 451.466 507.345 447.726 497.984C427.267 446.84 407.26 396.772 351.671 397.622C193.544 402.925 164.318 382.562 174.488 335.049C177.697 320.077 184.804 302.432 193.026 282.037C194.111 279.323 195.222 276.563 196.357 273.756C293.057 78.8532 198.418 10.5794 55.831 -8.58031C31.5337 -11.8518 5.83557 -13.685 -20.553 -14.4828L-19.835 -14.8647C6.36632 -14.0649 31.881 -12.2193 56.0238 -8.97096C198.875 10.2285 293.7 78.6099 196.857 273.811C195.722 276.618 194.629 279.371 193.522 282.082C185.315 302.459 178.207 320.103 175.005 335.037C164.905 382.281 194.063 402.513 351.761 397.236C407.684 396.386 427.747 446.552 448.23 497.82C451.963 507.159 455.707 516.531 459.69 525.639L459.216 525.887L459.212 525.877Z" fill="#2A699C" fill-opacity="0.3"/>
<path d="M463.652 523.548C460.887 516.771 458.217 509.848 455.55 502.935C436.023 452.29 416.394 401.421 359.279 400.473C191.14 401.998 167.211 386.235 182.245 327.634C185.434 315.206 190.359 300.88 196.054 284.352C197.247 280.895 198.463 277.331 199.874 273.207L199.87 273.197C292.153 70.18 191.826 10.5437 47.4892 -5.14235C22.9065 -7.81728 -2.94706 -9.21425 -29.3734 -9.82799L-28.6555 -10.2099C-2.43456 -9.58697 23.2317 -8.18808 47.6599 -5.53631C192.276 10.1716 292.785 69.9051 200.385 273.234C199.193 276.751 197.856 280.617 196.565 284.379C190.884 300.889 185.941 315.222 182.766 327.632C167.809 385.926 191.689 401.611 359.387 400.08C416.836 401.027 436.504 452.003 456.068 502.753C458.728 509.645 461.387 516.536 464.144 523.292L463.652 523.548Z" fill="#2A699C" fill-opacity="0.3"/>
<path d="M468.224 521.125C466.57 516.781 464.955 512.374 463.322 507.973C444.805 457.87 425.67 406.115 366.862 403.316C165.472 400.077 168.52 389.856 199.898 284.417C200.981 280.773 202.107 277.016 203.39 272.653L203.386 272.643C291.108 61.4604 185.169 10.8423 39.2551 -1.52379C14.3132 -3.63323 -11.7918 -4.62831 -38.301 -5.1246L-37.583 -5.50648C-11.2793 -5.00102 14.6384 -4.00402 39.4076 -1.91049C185.582 10.4848 291.717 61.1821 203.879 272.677C202.785 276.408 201.568 280.491 200.386 284.44C169.128 389.517 166.088 399.7 366.971 402.922C426.08 405.747 445.253 457.607 463.804 507.806C465.43 512.185 467.051 516.554 468.68 520.883L468.188 521.139L468.224 521.125Z" fill="#2A699C" fill-opacity="0.3"/>
<path d="M472.979 518.623C472.322 516.806 471.698 514.965 471.055 513.13C453.63 463.62 435.088 410.905 374.482 406.138C370.514 405.963 364.456 405.725 358.582 405.474C266.52 401.657 220.479 399.752 201.174 384.303C181.868 368.853 189.35 339.947 204.34 282.148C205.26 278.63 206.179 275.052 206.942 272.079L206.938 272.069C289.992 52.655 178.438 11.4545 31.1589 2.24005C5.82034 0.65055 -20.5551 0.00448943 -47.2065 -0.423218L-46.4885 -0.805102C-20.0426 -0.368233 6.1456 0.279747 31.2893 1.85003C178.848 11.0863 290.612 52.3483 207.449 272.095C206.443 276.01 205.631 279.135 204.839 282.143C189.892 339.828 182.409 368.675 201.588 384.005C220.775 399.357 266.753 401.262 358.708 405.073C363.139 405.258 367.698 405.451 374.631 405.741C435.552 410.515 454.115 463.343 471.574 512.948C472.224 514.744 472.836 516.554 473.482 518.339L472.99 518.595L472.979 518.623Z" fill="#2A699C" fill-opacity="0.3"/>
<path d="M477.89 516.029L478.382 515.773C462.361 467.492 444.076 415.316 382.261 408.589C359.243 407.008 338.842 405.849 320.785 404.821C257.041 401.192 222.632 399.232 206.761 386.525C188.161 371.641 194.941 341.89 209.655 277.267L210.959 271.519C300.915 9.81661 133.12 7.03758 -44.0799 4.11778C-47.8627 4.05037 -51.6637 3.99021 -55.4465 3.9228L-56.1645 4.30468C-52.1724 4.37349 -48.1803 4.44229 -44.1882 4.5111C132.74 7.43014 300.281 10.2011 210.456 271.514L210.46 271.524L209.138 277.28C194.385 342.027 187.602 371.827 206.347 386.823C222.329 399.607 256.782 401.573 320.636 405.218C338.693 406.246 359.098 407.416 382.09 408.983C443.667 415.684 461.914 467.815 477.89 516.029Z" fill="#2A699C" fill-opacity="0.3"/>
<path d="M482.936 513.358C468.672 468.027 449.79 420.146 389.671 411.816C354.625 408.443 325.491 406.694 301.477 405.243C226.28 400.7 197.106 355.942 213.954 270.968L213.95 270.957C294.043 13.4507 140.761 11.5978 -26.1045 9.59729C-39.0458 9.43605 -52.0716 9.27215 -65.0914 9.00925L-64.3734 8.62736C-51.5591 8.89943 -38.7465 9.05137 -25.9962 9.20396C141.145 11.2158 294.677 13.0662 214.471 270.956C197.353 355.683 226.4 400.319 301.611 404.863C325.626 406.314 354.763 408.074 389.831 411.451C450.167 419.803 469.127 467.726 483.41 513.11L482.918 513.365L482.936 513.358Z" fill="#2A699C" fill-opacity="0.3"/>
<path d="M488.124 510.621C475.286 468.251 455.72 424.483 397.276 414.666C353.639 409.246 319.047 407.359 291.959 405.896C196.886 400.739 193.99 400.585 217.487 270.411L217.483 270.4C288.936 15.1547 146.021 14.7754 -12.609 14.3587C-32.9253 14.301 -53.4911 14.2458 -73.8956 13.6554L-73.1776 13.2735C-52.968 13.8447 -32.6076 13.909 -12.4824 13.9581C146.419 14.3756 289.588 14.7628 218.023 270.391C194.583 400.205 197.483 400.369 292.126 405.492C319.236 406.957 353.846 408.837 397.487 414.268C456.144 424.097 475.77 467.914 488.631 510.348L488.139 510.604L488.124 510.621Z" fill="#2A699C" fill-opacity="0.3"/>
<path d="M493.443 507.823C481.69 468.453 461.463 428.631 404.884 417.505C355.073 409.851 316.781 408.299 287.898 407.127C204.511 403.741 199.36 403.529 221.009 269.86L221.005 269.85C284.678 15.7263 149.411 17.1524 -2.4346 18.7512C-28.977 19.0291 -56.0187 19.3121 -82.5873 18.2476L-81.8875 17.8729C-55.5138 18.9183 -28.6815 18.6339 -2.32628 18.3579C149.788 16.7493 285.304 15.3206 221.541 269.83C199.935 403.155 205.082 403.357 288.047 406.73C316.93 407.901 355.226 409.465 405.099 417.118C461.854 428.27 482.141 468.141 493.932 507.557L493.44 507.813L493.443 507.823Z" fill="#2A699C" fill-opacity="0.3"/>
<path d="M498.848 504.974L499.341 504.718C488.279 468.358 467.37 432.25 412.732 419.967C358.339 409.978 317.391 409.106 287.318 408.455C212.294 406.832 205.033 406.673 225.08 269.269C281.691 15.0157 151.861 18.4852 5.36369 22.404C-26.3406 23.2469 -58.8302 24.112 -90.3796 22.3809L-91.0649 22.7378C-59.3351 24.5058 -26.6179 23.6349 5.29186 22.7828C151.503 18.8811 281.105 15.4174 224.566 269.292C204.462 407.057 211.763 407.212 287.206 408.838C317.257 409.485 358.168 410.372 412.495 420.351C466.974 432.601 487.824 468.659 498.852 504.985L498.848 504.974Z" fill="#2A699C" fill-opacity="0.3"/>
<path d="M504.253 502.111L504.745 501.855C494.083 468.561 472.607 436.024 420.342 422.798C362.645 410.426 319.734 410.478 288.746 410.53C219.231 410.631 209.884 410.649 228.596 268.689C278.551 13.9883 152.923 19.6658 11.1061 26.0739C-25.338 27.7249 -62.8316 29.4184 -98.6901 26.7419L-99.3753 27.0987C-63.3288 29.8333 -25.6115 28.1234 11.0198 26.4705C152.569 20.0723 277.952 14.4078 228.064 268.719C209.294 411.04 218.686 411.029 288.634 410.912C319.604 410.868 362.488 410.802 420.083 423.179C472.226 436.357 493.624 468.852 504.253 502.111Z" fill="#2A699C" fill-opacity="0.3"/>
<path d="M509.628 499.281C499.1 469.075 477.238 439.916 427.678 426.027C367.729 411.239 323.296 412.452 291.537 413.317C225.435 415.119 214.003 415.433 231.573 268.178C275.226 12.8522 152.906 20.8634 15.2298 29.89C-25.6242 32.5683 -67.8063 35.3273 -107.413 31.3499L-106.746 31.0003C-67.3092 34.9124 -25.3508 32.1698 15.2978 29.5006C153.238 20.4537 275.804 12.4293 232.101 268.137C214.566 415.028 225.918 414.721 291.627 412.931C323.427 412.062 367.899 410.845 427.941 425.656C477.619 439.584 499.537 468.78 510.12 499.025L509.628 499.281Z" fill="#2A699C" fill-opacity="0.3"/>
<path d="M514.885 496.5C504.191 469.295 482.027 443.229 435.28 428.861C373.695 411.631 328 414.143 295.486 415.924C232.037 419.401 218.583 420.132 235.106 267.616C272.849 10.7851 152.66 21.2834 18.2241 33.0331C-26.4057 36.9336 -72.6161 40.9669 -115.146 35.4327L-114.497 35.0904C-72.1448 40.5381 -26.1581 36.5212 18.2701 32.6404C152.992 20.8736 273.423 10.3517 235.634 267.575C219.164 419.72 232.534 418.987 295.576 415.538C328.13 413.753 373.892 411.251 435.568 428.505C482.411 442.907 504.649 469.004 515.381 496.255L514.889 496.511L514.885 496.5Z" fill="#2A699C" fill-opacity="0.3"/>
<path d="M519.936 493.841C508.87 469.537 486.603 446.301 442.904 431.701C380.246 412.023 333.487 415.924 300.223 418.691C238.585 423.829 223.098 425.114 238.637 267.046C270.738 8.30086 151.948 21.3962 20.1912 35.9347C-27.896 41.2451 -77.681 46.7106 -122.535 39.3097L-121.905 38.9747C-77.2317 46.2785 -27.6522 40.8221 20.215 35.5387C152.254 20.9725 271.305 7.84629 239.157 266.984C223.646 424.667 239.031 423.386 300.265 418.288C333.587 415.51 380.431 411.611 443.185 431.324C486.998 445.951 509.321 469.225 520.424 493.574L519.932 493.83L519.936 493.841Z" fill="#2A699C" fill-opacity="0.3"/>
<path d="M524.674 491.348C513.122 469.798 490.989 449.13 450.51 434.544C387.242 412.426 339.545 417.775 305.514 421.596C245.033 428.375 227.518 430.345 242.157 266.498C268.84 5.47322 150.83 21.3026 21.2902 38.6807C-29.9474 45.5568 -82.9809 52.6632 -129.614 43.0578L-128.983 42.7228C-82.5211 52.2027 -29.7037 45.1338 21.314 38.2847C151.15 20.8612 269.436 4.98306 242.696 266.429C228.084 429.891 245.479 427.932 305.538 421.2C339.631 417.378 387.405 412.011 450.795 434.177C491.366 448.787 513.554 469.494 525.162 491.082L524.67 491.337L524.674 491.348Z" fill="#2A699C" fill-opacity="0.3"/>
<path d="M528.508 489.316C516.468 470.4 494.795 452.099 457.738 437.795C394.345 413.311 345.952 420.144 311.224 425.039C250.929 433.545 231.2 436.322 245.062 265.995C266.469 2.85088 149.056 21.4869 21.6522 41.7124C-32.7476 50.3521 -88.9502 59.2612 -137.071 46.9856L-135.019 45.9046C-87.4408 57.7193 -32.0075 48.9347 21.6452 40.4227C150.034 20.0352 268.355 1.25572 246.829 265.801C233.084 434.776 252.351 432.05 311.257 423.746C346.224 418.816 394.935 411.941 458.79 436.604C496.072 451.011 517.934 469.431 530.086 488.484L528.49 489.323L528.508 489.316Z" fill="#2A699C" fill-opacity="0.3"/>
<path d="M965.831 485.029C932.834 465.15 884.663 467.112 823.491 481.39C587.479 536.454 462.024 493.131 373.05 462.406C330.03 447.549 295.552 435.639 261.261 439.261C101.68 456.133 56.6599 434.533 59.0998 392.724C60.644 366.394 81.0591 332.083 103.526 294.325C118.202 269.663 133.745 243.533 145.464 217.219C182.424 134.203 181.184 49.3091 -6.11463 2.76137L-5.50024 2.32401C181.91 49.0084 183.121 134.108 146.067 217.33C134.338 243.672 118.78 269.819 104.109 294.492C81.681 332.187 61.3055 366.433 59.7596 392.643C57.3299 434.133 102.219 455.544 261.298 438.727C295.746 435.079 330.295 447.009 373.388 461.898C462.269 492.598 587.629 535.887 823.429 480.871C884.854 466.541 933.215 464.588 966.38 484.642L965.835 485.039L965.831 485.029Z" fill="#2A699C" fill-opacity="0.3"/>
<path d="M965.618 485.186C934.06 462.876 885.421 463.948 819.662 480.495C580.827 537.744 451.234 492.332 360.59 460.568C320.065 446.374 287.352 434.899 256.158 436.577C102.943 449.688 61.3803 426.448 65.0506 384.404C67.2846 358.827 86.2674 326.33 107.026 290.832C120.946 267.026 135.633 241.877 146.591 216.578C181.688 135.511 178.188 52.8547 -13.3205 8.00362L-12.71 7.5557C178.943 52.5183 182.373 135.383 147.191 216.678C136.222 242.005 121.521 267.172 107.604 290.989C86.8894 326.433 67.9316 358.884 65.718 384.345C62.0944 426.056 103.525 449.106 256.254 436.032C287.572 434.352 320.37 445.83 360.947 460.052C451.52 491.795 580.995 537.17 819.621 479.979C885.63 463.37 934.481 462.309 966.185 484.791L965.659 485.182L965.618 485.186Z" fill="#2A699C" fill-opacity="0.3"/>
<path d="M965.231 485.456C935.249 460.635 886.233 460.722 815.825 479.599C573.598 539.247 439.379 491.263 347.243 458.317C309.663 444.874 279.09 433.949 251.063 433.875C104.014 443.195 66.0437 418.226 71.0493 375.832C73.9672 351.107 91.5406 320.486 110.565 287.296C123.719 264.374 137.576 240.219 147.781 215.956C181.061 136.794 175.422 56.3649 -20.5779 13.2381L-19.9636 12.8007C176.159 56.0358 181.75 136.677 148.381 216.056C138.169 240.358 124.294 264.52 111.148 287.463C92.1443 320.597 74.5997 351.182 71.7022 375.79C66.7434 417.851 104.6 442.623 251.18 433.333C279.332 433.406 309.956 444.358 347.603 457.812C439.666 490.727 573.785 538.665 815.762 479.08C886.438 460.133 935.652 460.076 965.78 485.069L965.249 485.449L965.231 485.456Z" fill="#2A699C" fill-opacity="0.3"/>
<path d="M964.676 485.86C936.391 458.456 887.147 457.45 812.006 478.715C565.672 541.033 426.228 489.859 332.883 455.593C298.723 443.062 270.744 432.786 245.985 431.183C104.838 436.673 70.6383 409.831 77.1388 366.953C80.7422 343.199 96.86 314.558 114.181 283.759C126.588 261.714 139.599 238.571 149.077 215.358C180.632 138.066 172.881 59.8771 -27.8171 18.4837L-27.2065 18.0358C173.614 59.5374 181.314 137.928 149.67 215.437C140.166 238.696 127.159 261.85 114.738 283.913C97.4416 314.665 81.3488 343.26 77.7697 366.907C71.3198 409.464 105.403 436.098 246.095 430.62L246.131 430.606C271 432.225 299.023 442.508 333.236 455.066C426.524 489.294 565.847 540.42 811.936 478.175C887.362 456.833 936.787 457.876 965.221 485.462L964.69 485.842L964.676 485.86Z" fill="#2A699C" fill-opacity="0.3"/>
<path d="M963.927 486.398C937.477 456.332 888.132 454.122 808.171 477.821C556.808 543.152 411.441 487.954 317.297 452.229C287.143 440.788 262.26 431.335 240.855 428.497C105.289 430.078 75.1104 401.192 83.331 357.643C87.6003 335.037 102.224 308.5 117.807 280.228C129.469 259.071 141.672 236.925 150.464 214.758C180.349 139.313 170.518 63.3997 -35.1379 23.7706L-34.5091 23.3155C171.251 63.06 181.034 139.185 151.06 214.847C142.262 237.053 130.059 259.199 118.382 280.374C102.805 308.607 88.207 335.098 83.9695 357.618C75.8216 400.849 105.901 429.521 241.005 427.93L241.049 427.937C262.52 430.785 287.448 440.244 317.65 451.703C411.701 487.403 556.947 542.553 808.065 477.296C888.289 453.516 937.84 455.777 964.432 486.004L963.901 486.384L963.927 486.398Z" fill="#2A699C" fill-opacity="0.3"/>
<path d="M963.023 487.059C938.532 454.27 889.194 450.753 804.367 476.929C546.737 545.716 394.489 485.351 300.346 448.008C274.877 437.919 253.669 429.506 235.791 425.798C105.376 423.376 79.604 392.184 89.809 347.713C94.6814 326.487 107.758 302.254 121.562 276.683C132.513 256.388 143.93 235.243 152.038 214.132C180.308 140.513 168.453 66.9136 -42.4064 29.062L-41.7777 28.6069C169.182 66.5634 180.992 140.385 152.635 214.222C144.504 235.389 133.088 256.534 122.141 276.839C108.344 302.372 95.2958 326.569 90.4407 347.727C80.3084 391.88 106.022 422.854 235.971 425.256L236.037 425.266C253.977 428.973 275.211 437.399 300.71 447.514C394.776 484.815 546.897 545.12 804.264 476.414C889.395 450.153 938.932 453.701 963.568 486.661L963.037 487.041L963.023 487.059Z" fill="#2A699C" fill-opacity="0.3"/>
<path d="M961.963 487.83C939.53 452.243 890.338 447.339 800.534 476.036C534.88 548.905 374.557 481.626 281.617 442.646C261.654 434.27 244.794 427.198 230.685 423.116C104.87 416.499 84.0435 382.641 96.6062 336.895C101.958 317.399 113.401 295.749 125.351 273.136C135.613 253.707 146.262 233.556 153.749 213.441C180.461 141.636 166.616 70.3855 -49.7214 34.3601L-49.0743 33.8977C167.345 70.0353 181.142 141.498 154.345 213.53C146.861 233.656 136.199 253.824 125.926 273.282C113.986 295.867 102.573 317.481 97.2235 336.928C84.7335 382.355 105.52 415.987 230.864 422.574L230.935 422.594C245.069 426.69 261.955 433.776 281.94 442.155C374.792 481.122 535.004 548.324 800.376 475.543C890.462 446.758 939.875 451.696 962.454 487.454L961.927 487.845L961.963 487.83Z" fill="#2A699C" fill-opacity="0.3"/>
<path d="M960.725 488.733C940.473 450.286 891.532 443.881 796.708 475.152L796.671 475.167C520.322 553.046 350.144 476.069 260.697 435.604C247.188 429.484 235.511 424.218 225.603 420.436C103.507 409.322 88.5875 372.223 104.041 324.713C109.641 307.462 119.261 288.855 129.213 269.609C138.833 251.002 148.761 231.802 155.634 212.704C180.84 142.681 165.017 73.8711 -57.0221 39.6884L-56.3789 39.2154C165.757 73.4926 181.532 142.515 156.241 212.765C149.36 231.902 139.419 251.12 129.802 269.737C119.861 288.955 110.255 307.544 104.662 324.756C89.3072 371.962 104.209 408.837 225.827 419.9L225.897 419.921C235.831 423.717 247.533 428.997 261.065 435.12C350.456 475.547 520.464 552.458 796.572 474.662C891.678 443.304 940.84 449.742 961.238 488.36L960.707 488.74L960.725 488.733Z" fill="#2A699C" fill-opacity="0.3"/>
<path d="M959.331 489.732C941.381 448.354 892.803 440.355 792.89 474.24L792.853 474.255C500.867 558.78 318.209 466.808 236.873 425.85C230.875 422.834 225.436 420.091 220.523 417.706C66.9541 396.991 98.3187 334.933 133.134 266.02C142.141 248.201 151.38 229.926 157.684 211.792C181.456 143.522 163.668 77.2445 -64.3628 44.9709L-63.7196 44.4979C164.386 76.8626 182.148 143.356 158.294 211.863C151.962 230.034 142.726 248.318 133.705 266.156C99.0324 334.77 67.8037 396.569 220.75 417.181L220.842 417.205C225.729 419.575 231.213 422.325 237.24 425.366C318.503 466.292 501.032 558.196 792.728 473.736L792.747 473.729C892.959 439.749 941.74 447.789 959.869 489.313L959.324 489.711L959.331 489.732Z" fill="#2A699C" fill-opacity="0.3"/>
<path d="M957.777 490.861C942.234 446.497 894.136 436.822 789.064 473.36C634.539 519.339 507.868 514.801 411.471 493.742C315.099 472.698 248.941 435.143 215.434 415.008C74.6598 388.908 104.677 328.147 137.133 262.467C145.555 245.399 154.167 227.989 159.952 210.786C182.346 144.247 162.549 80.6159 -71.703 50.3068L-71.0414 49.8265C163.289 80.2373 183.019 144.088 160.562 210.857C154.767 228.089 146.163 245.52 137.707 262.613C105.384 328.023 75.4843 388.532 215.714 414.511L215.81 414.545C249.287 434.656 315.4 472.203 411.724 493.231C508.03 514.266 634.572 518.794 788.929 472.87C894.318 436.23 942.638 445.938 958.345 490.466L957.781 490.871L957.777 490.861Z" fill="#2A699C" fill-opacity="0.3"/>
<path d="M956.057 492.109C955.802 491.172 955.532 490.253 955.248 489.351C941.115 444.27 893.35 434.015 785.218 472.482L785.181 472.496C742.555 485.518 701.836 494.629 663.145 500.519C624.454 506.408 587.779 509.093 553.271 509.286C375.858 510.28 255.543 445.431 210.329 412.324C82.153 381.049 110.935 321.491 141.161 258.943C149.079 242.559 157.108 225.961 162.413 209.624C183.462 144.792 161.662 83.9373 -79.0643 55.6448L-78.4028 55.1645C162.376 83.5449 184.149 144.615 163.019 209.685C157.686 226.057 149.679 242.658 141.751 259.071C111.642 321.367 82.9631 380.691 210.649 411.822L210.748 411.867C255.903 444.925 376.1 509.737 553.389 508.744C587.856 508.555 624.491 505.874 663.141 499.989C701.791 494.103 742.479 485.017 785.064 471.999C893.679 433.365 941.655 443.741 955.884 489.147C956.149 489.996 956.392 490.841 956.643 491.708L956.061 492.12L956.057 492.109Z" fill="#2A699C" fill-opacity="0.3"/>
<path d="M954.198 493.448C953.575 490.398 952.796 487.494 951.916 484.715C937.888 441.537 890.035 432.138 781.399 471.579L781.344 471.6C739.363 484.788 699.002 494.083 660.447 500.173C621.909 506.255 585.159 509.139 550.463 509.503C372.083 511.401 247.402 446.837 205.215 409.628C89.4641 373.393 117.087 314.96 145.244 255.408C152.697 239.643 160.2 223.786 165.068 208.263C184.844 145.108 160.953 87.1861 -86.467 60.9972L-85.8055 60.517C161.667 86.7937 185.514 144.938 165.675 208.324C160.8 223.886 153.301 239.754 145.837 255.547C117.783 314.864 90.2635 373.063 205.583 409.144L205.682 409.189C247.766 446.342 372.307 510.865 550.562 508.969C585.218 508.608 621.906 505.725 660.421 499.64C698.936 493.554 739.261 484.273 781.205 471.1L781.242 471.086C890.324 431.492 938.387 441.013 952.527 484.497C953.405 487.216 954.161 490.056 954.779 493.035L954.201 493.458L954.198 493.448Z" fill="#2A699C" fill-opacity="0.3"/>
<path d="M952.184 494.917C951.432 489.72 950.332 484.89 948.827 480.439C934.854 438.858 886.833 430.263 777.553 470.696L777.443 470.739C736.122 484.076 696.097 493.551 657.699 499.844C619.296 506.126 582.513 509.205 547.628 509.741C368.294 512.525 239.23 448.252 200.128 406.931C96.5562 365.978 123.154 308.58 149.41 251.91C156.47 236.675 163.505 221.487 167.968 206.693C186.527 145.193 160.461 90.382 -93.8386 66.3587L-93.1589 65.8712C161.19 89.9718 187.229 144.999 168.608 206.729C164.138 221.562 157.088 236.768 150.013 252.02C123.85 308.484 97.3633 365.669 200.54 406.453L200.625 406.516C239.642 447.775 368.54 511.992 547.745 509.199C582.586 508.656 619.351 505.585 657.713 499.307C696.075 493.029 736.045 483.575 777.345 470.235L777.436 470.199C887.161 429.613 935.412 438.322 949.473 480.206C950.941 484.612 952.058 489.374 952.802 494.49L952.206 494.92L952.184 494.917Z" fill="#2A699C" fill-opacity="0.3"/>
<path d="M950.033 496.479C949.394 489.111 948.078 482.411 946.015 476.418C932.097 436.204 883.79 428.375 773.76 469.794L773.369 469.925C732.685 483.407 693.037 493.059 654.784 499.524C616.531 505.988 579.687 509.247 544.636 509.958C364.422 513.599 231.085 449.635 195.054 404.219C103.419 358.801 129.09 302.363 153.636 248.414C160.372 233.61 167.03 218.995 171.124 204.854C188.493 144.975 160.121 93.484 -101.234 71.72L-100.554 71.2325C160.831 93.081 189.191 144.77 171.73 204.915C167.626 219.084 160.957 233.728 154.207 248.55C129.761 302.314 104.182 358.546 195.481 403.784L195.566 403.846C231.486 449.186 364.672 513.077 544.721 509.442C579.754 508.738 616.553 505.472 654.766 499.011C692.96 492.558 732.571 482.921 773.219 469.453L773.592 469.329C884.064 427.747 932.601 435.69 946.629 476.21C948.672 482.151 949.984 488.78 950.652 496.052L950.037 496.49L950.033 496.479Z" fill="#2A699C" fill-opacity="0.3"/>
<path d="M947.72 498.154C947.391 488.585 946.012 480.037 943.378 472.64C929.485 433.588 880.816 426.494 769.912 468.901L769.839 468.93C729.785 482.597 690.482 492.45 652.368 499.125C614.254 505.8 577.343 509.279 542.067 510.176C360.739 514.779 222.919 451.062 189.943 401.509C109.955 351.923 134.834 296.355 157.841 244.962C164.339 230.482 170.666 216.337 174.441 202.758C190.709 144.451 159.841 96.5122 -108.684 77.0898L-108.008 76.5918C160.562 96.0809 191.381 144.232 175.058 202.79C171.254 216.405 164.917 230.579 158.423 245.069C135.484 296.303 110.682 351.682 190.392 401.077L190.46 401.147C223.338 450.606 360.981 514.236 542.144 509.638C577.376 508.735 614.25 505.27 652.324 498.599C690.398 491.928 729.661 482.079 769.664 468.444L769.737 468.415C881.079 425.835 929.977 433.042 943.963 472.408C946.577 479.752 947.97 488.222 948.308 497.702L947.679 498.158L947.72 498.154Z" fill="#2A699C" fill-opacity="0.3"/>
<path d="M945.267 499.932C945.429 488.139 944.101 477.771 940.932 469.065C927.059 430.995 877.957 424.606 766.097 468.008L766.06 468.023C726.647 481.845 687.689 491.9 649.728 498.768C611.767 505.635 574.782 509.313 539.321 510.392C356.989 515.913 214.796 452.46 184.861 398.788C116.194 345.344 140.449 290.532 162.131 241.537C168.448 227.251 174.552 213.471 178.058 200.361C193.253 143.592 159.649 99.4585 -116.098 82.4702L-115.404 81.9649C160.388 99.0199 193.94 143.355 178.694 200.387C175.177 213.525 169.062 227.333 162.73 241.637C141.124 290.493 116.933 345.135 185.384 398.387L185.411 398.46C215.241 452.018 357.268 515.356 539.416 509.847C574.837 508.772 611.781 505.098 649.702 498.234C687.622 491.37 726.545 481.33 765.899 467.519L765.936 467.504C878.252 423.921 927.569 430.442 941.549 468.808C944.703 477.472 946.062 487.755 945.925 499.441L945.278 499.904L945.267 499.932Z" fill="#2A699C" fill-opacity="0.3"/>
<path d="M942.673 501.815C943.519 487.757 942.332 475.582 938.639 465.658C924.764 428.447 875.207 422.709 762.257 467.136L762.22 467.151C723.448 481.129 684.852 491.378 647.026 498.446C609.218 505.507 572.163 509.394 536.514 510.644C353.196 517.076 206.615 453.905 179.762 396.109C122.039 339.151 145.825 285.008 166.396 238.194C172.648 223.958 178.608 210.416 181.874 197.68C196.033 142.434 159.449 102.359 -123.588 87.9042L-122.875 87.3916C160.162 101.906 196.73 142.169 182.487 197.702C179.215 210.477 173.244 224.047 166.996 238.294C146.482 284.976 122.767 338.97 180.297 395.74L180.32 395.803C207.082 453.466 353.489 516.501 536.605 510.088C572.214 508.842 609.211 504.966 647 497.913C684.768 490.856 723.327 480.622 762.041 466.655C875.429 422.053 925.219 427.916 939.205 465.433C942.886 475.325 944.084 487.412 943.298 501.349L942.637 501.829L942.673 501.815Z" fill="#2A699C" fill-opacity="0.3"/>
<path d="M939.924 503.798C941.572 487.452 940.693 473.475 936.473 462.384C922.572 425.908 872.51 420.794 758.421 466.229L758.384 466.244C720.253 480.378 682.019 490.821 644.347 498.082C606.674 505.343 569.563 509.421 533.729 510.854C349.421 518.186 198.434 455.304 174.667 393.395C127.492 333.273 150.99 279.716 170.652 234.894C176.95 220.554 182.842 207.113 185.899 194.665C199.087 140.891 159.189 105.164 -131.062 93.3346L-130.349 92.822C159.921 104.705 199.785 140.626 186.534 194.69C183.474 207.187 177.572 220.657 171.259 235.015C151.644 279.734 128.207 333.17 175.247 393.092L175.266 393.145C198.961 454.913 349.715 517.671 533.835 510.34C569.629 508.911 606.682 504.844 644.314 497.588C681.95 490.342 720.148 479.913 758.238 465.783C872.784 420.165 923.075 425.394 937.083 462.166C941.288 473.215 942.22 487.11 940.612 503.331L939.932 503.819L939.924 503.798Z" fill="#2A699C" fill-opacity="0.3"/>
<path d="M937.043 505.885C939.672 487.229 939.157 471.429 934.433 459.234C920.511 423.394 869.892 418.875 754.591 465.348C749.73 467.206 744.865 468.995 739.998 470.723C609.196 517.23 474.679 520.037 368.922 500.063C263.122 480.083 186.056 437.308 170.259 392.647C170.022 391.992 169.79 391.347 169.593 390.689C132.484 327.8 155.918 274.702 174.904 231.647C181.352 217.03 187.281 203.574 190.153 191.308C202.403 138.982 158.854 107.883 -138.559 98.7659L-137.832 98.2355C159.593 107.384 203.107 138.678 190.781 191.312C187.906 203.628 181.948 217.12 175.485 231.754C156.528 274.714 133.176 327.694 170.18 390.407L170.195 390.449C170.41 391.101 170.629 391.763 170.866 392.418C186.631 436.935 263.552 479.598 369.15 499.538C474.814 519.488 609.188 516.689 739.845 470.24C744.711 468.512 749.573 466.713 754.419 464.872C870.162 418.236 921.007 422.859 935.058 458.998C939.766 471.151 940.313 486.866 937.76 505.383L937.065 505.888L937.043 505.885Z" fill="#2A699C" fill-opacity="0.3"/>
<path d="M934.036 508.069C937.759 487.07 937.747 469.428 932.502 456.195C918.544 420.889 867.327 416.97 750.767 464.463C736.722 469.97 722.594 474.955 708.385 479.429C585.274 518.278 458.123 519.342 357.59 499.492C257.02 479.656 183.063 438.895 166.435 394.129C165.694 392.08 165.034 390.023 164.52 387.968C136.982 322.678 160.536 269.968 179.073 228.444C185.812 213.361 191.878 199.766 194.597 187.597C205.961 136.687 158.38 110.487 -146.069 104.201L-145.342 103.671C159.085 110.013 206.647 136.39 195.229 187.612C192.507 199.83 186.412 213.461 179.68 228.565C161.175 270.004 137.668 322.611 165.141 387.722L165.152 387.754C165.666 389.808 166.304 391.862 167.063 393.904C183.642 438.532 257.454 479.182 357.843 498.98C458.281 518.796 585.306 517.733 708.268 478.932C722.436 474.462 736.565 469.477 750.591 463.977C867.608 416.303 919.054 420.336 933.123 455.948C938.338 469.157 938.4 486.707 934.749 507.557L934.036 508.069Z" fill="#2A699C" fill-opacity="0.3"/>
<path d="M930.879 510.363C935.831 486.991 936.399 467.487 930.663 453.242C916.648 418.417 864.834 415.038 746.936 463.569C724.709 472.545 702.113 480.157 679.361 486.527C562.925 519.064 442.411 518.675 346.664 499.013C250.892 479.337 179.875 440.355 162.493 395.756C161.137 392.296 160.123 388.798 159.435 385.278C140.923 317.984 164.815 265.575 183.154 225.349C190.339 209.594 196.662 195.727 199.246 183.588C209.758 134.079 157.726 113.066 -153.574 109.659L-152.847 109.129C158.442 112.564 210.451 133.743 199.873 183.592C197.291 195.792 190.939 209.694 183.757 225.46C165.451 265.6 141.591 317.924 160.067 385.063L160.071 385.074C160.755 388.583 161.78 392.053 163.114 395.509C180.446 439.971 251.318 478.841 346.929 498.473C442.587 518.122 562.958 518.52 679.277 486.005C701.996 479.66 724.551 472.052 746.761 463.083C865.115 414.371 917.177 417.857 931.279 452.985C937.004 467.198 936.483 486.599 931.62 509.815L930.875 510.352L930.879 510.363Z" fill="#2A699C" fill-opacity="0.3"/>
<path d="M926.705 513.381C933.104 487.43 934.448 465.914 928.202 450.664C914.272 416.591 862.092 413.876 743.325 463.236C713.72 475.541 683.239 485.368 652.47 492.954C541.766 520.267 427.194 518.641 335.786 499.139C244.245 479.617 175.893 442.114 157.757 397.741C155.746 392.815 154.354 387.811 153.604 382.734C143.509 313.654 168.008 261.366 186.405 222.168C194.17 205.591 200.84 191.357 203.274 179.265C212.876 131.567 156.002 116.162 -162.023 115.753L-159.54 113.958C158.372 114.459 215.227 130.331 205.378 179.251C202.914 191.548 196.189 205.864 188.364 222.562C170.067 261.575 145.696 313.583 155.712 382.211C156.442 387.175 157.799 392.084 159.773 396.904C177.725 440.83 245.64 477.988 336.635 497.388C427.73 516.833 541.92 518.442 652.222 491.228C682.874 483.665 713.205 473.886 742.682 461.631C862.92 411.663 915.902 414.747 930.231 449.809C936.421 464.961 935.304 486.121 929.216 511.55L926.701 513.371L926.705 513.381Z" fill="#2A699C" fill-opacity="0.3"/>
</g>
</g>
</svg>
